<svg version="1.2" baseProfile="tiny-ps" xmlns="http://www.w3.org/2000/svg" viewBox="0 0 2578 2898" width="2578" height="2898">
	<title>Layer 1</title>
	<defs>
		<clipPath clipPathUnits="userSpaceOnUse" id="cp1">
			<path d="M25.99 2710.11C330.23 2578.07 427.76 2788.67 620.69 2704.94C749.31 2649.12 797.1 2546.67 764.04 2397.59C677.73 2271.62 570.26 2236.55 441.64 2292.37C248.71 2376.1 330.23 2578.07 25.99 2710.11Z" />
		</clipPath>
	</defs>
	<style>
		tspan { white-space:pre }
		.shp0 { fill: #ec1c24 } 
		.shp1 { fill: #ec1d24 } 
		.shp2 { fill: #ec1e24 } 
		.shp3 { fill: #ec1f24 } 
		.shp4 { fill: #ec2024 } 
		.shp5 { fill: #ed2124 } 
		.shp6 { fill: #ed2224 } 
		.shp7 { fill: #ed2324 } 
		.shp8 { fill: #ed2424 } 
		.shp9 { fill: #ed2524 } 
		.shp10 { fill: #ed2624 } 
		.shp11 { fill: #ed2724 } 
		.shp12 { fill: #ed2824 } 
		.shp13 { fill: #ed2924 } 
		.shp14 { fill: #ed2a24 } 
		.shp15 { fill: #ee2a24 } 
		.shp16 { fill: #ee2b24 } 
		.shp17 { fill: #ee2c24 } 
		.shp18 { fill: #ee2d24 } 
		.shp19 { fill: #ee2e24 } 
		.shp20 { fill: #ee2f24 } 
		.shp21 { fill: #ee3024 } 
		.shp22 { fill: #ee3124 } 
		.shp23 { fill: #ee3224 } 
		.shp24 { fill: #ee3225 } 
		.shp25 { fill: #ef3325 } 
		.shp26 { fill: #ef3425 } 
		.shp27 { fill: #ef3525 } 
		.shp28 { fill: #ef3625 } 
		.shp29 { fill: #ef3725 } 
		.shp30 { fill: #ef3825 } 
		.shp31 { fill: #ef3925 } 
		.shp32 { fill: #ef3a25 } 
		.shp33 { fill: #ef3b25 } 
		.shp34 { fill: #ef3c25 } 
		.shp35 { fill: #f03d25 } 
		.shp36 { fill: #f03e25 } 
		.shp37 { fill: #f03f25 } 
		.shp38 { fill: #f04025 } 
		.shp39 { fill: #f04125 } 
		.shp40 { fill: #f04225 } 
		.shp41 { fill: #f04325 } 
		.shp42 { fill: #f04425 } 
		.shp43 { fill: #f04525 } 
		.shp44 { fill: #f14625 } 
		.shp45 { fill: #f14725 } 
		.shp46 { fill: #f14825 } 
		.shp47 { fill: #f14925 } 
		.shp48 { fill: #f14a25 } 
		.shp49 { fill: #f14b25 } 
		.shp50 { fill: #f14c25 } 
		.shp51 { fill: #f14d25 } 
		.shp52 { fill: #f14e25 } 
		.shp53 { fill: #f24f25 } 
		.shp54 { fill: #f25025 } 
		.shp55 { fill: #f25125 } 
		.shp56 { fill: #f25225 } 
		.shp57 { fill: #f25325 } 
		.shp58 { fill: #f25425 } 
		.shp59 { fill: #f25525 } 
		.shp60 { fill: #f25625 } 
		.shp61 { fill: #f25725 } 
		.shp62 { fill: #f35825 } 
		.shp63 { fill: #f35925 } 
		.shp64 { fill: #f35a25 } 
		.shp65 { fill: #f35c25 } 
		.shp66 { fill: #f35d25 } 
		.shp67 { fill: #f35e26 } 
		.shp68 { fill: #f35f26 } 
		.shp69 { fill: #f36026 } 
		.shp70 { fill: #f46126 } 
		.shp71 { fill: #f46226 } 
		.shp72 { fill: #f46426 } 
		.shp73 { fill: #f46526 } 
		.shp74 { fill: #f46626 } 
		.shp75 { fill: #f46726 } 
		.shp76 { fill: #f46826 } 
		.shp77 { fill: #f46a26 } 
		.shp78 { fill: #f56b26 } 
		.shp79 { fill: #f56c26 } 
		.shp80 { fill: #f56d26 } 
		.shp81 { fill: #f56f26 } 
		.shp82 { fill: #f57026 } 
		.shp83 { fill: #f57126 } 
		.shp84 { fill: #f57226 } 
		.shp85 { fill: #f67426 } 
		.shp86 { fill: #f67526 } 
		.shp87 { fill: #f67626 } 
		.shp88 { fill: #f67726 } 
		.shp89 { fill: #f67926 } 
		.shp90 { fill: #f67a26 } 
		.shp91 { fill: #f67b26 } 
		.shp92 { fill: #f77d26 } 
		.shp93 { fill: #f77e26 } 
		.shp94 { fill: #f77f26 } 
		.shp95 { fill: #f78126 } 
		.shp96 { fill: #f78226 } 
		.shp97 { fill: #f78426 } 
		.shp98 { fill: #f78526 } 
		.shp99 { fill: #f88626 } 
		.shp100 { fill: #f88826 } 
		.shp101 { fill: #f88927 } 
		.shp102 { fill: #f88a27 } 
		.shp103 { fill: #f88c27 } 
		.shp104 { fill: #f88d27 } 
		.shp105 { fill: #f98f27 } 
		.shp106 { fill: #f99027 } 
		.shp107 { fill: #f99227 } 
		.shp108 { fill: #f99327 } 
		.shp109 { fill: #f99427 } 
		.shp110 { fill: #f99627 } 
		.shp111 { fill: #f99727 } 
		.shp112 { fill: #fa9927 } 
		.shp113 { fill: #fa9a27 } 
		.shp114 { fill: #fa9c27 } 
		.shp115 { fill: #fa9d27 } 
		.shp116 { fill: #fa9f27 } 
		.shp117 { fill: #faa027 } 
		.shp118 { fill: #fba227 } 
		.shp119 { fill: #fba327 } 
		.shp120 { fill: #fba527 } 
		.shp121 { fill: #fba627 } 
		.shp122 { fill: #fba827 } 
		.shp123 { fill: #fbaa27 } 
		.shp124 { fill: #fcab27 } 
		.shp125 { fill: #fcad27 } 
		.shp126 { fill: #fcae27 } 
		.shp127 { fill: #fcb027 } 
		.shp128 { fill: #fcb127 } 
		.shp129 { fill: #fcb327 } 
		.shp130 { fill: #fdb528 } 
		.shp131 { fill: #fdb628 } 
		.shp132 { fill: #fdb828 } 
		.shp133 { fill: #fdb928 } 
		.shp134 { fill: #fdbb28 } 
		.shp135 { fill: #febd28 } 
		.shp136 { fill: #febe28 } 
		.shp137 { fill: #fec028 } 
		.shp138 { fill: #fec228 } 
		.shp139 { fill: #fec328 } 
		.shp140 { fill: #fec528 } 
		.shp141 { fill: #ffc728 } 
		.shp142 { fill: #ffc828 } 
		.shp143 { fill: #ffca28 } 
		.shp144 { fill: #ffffff } 
		.shp145 { fill: #371a45 } 
		.shp146 { fill: #ffd553 } 
		.shp147 { fill: #00aaff } 
		.shp148 { fill: #d25658 } 
		.shp149 { fill: #6bd6f0 } 
		.shp150 { fill: #111a28 } 
		.shp151 { fill: #22a7f0 } 
	</style>
	<g id="Layer 1">
		<g id="&lt;Group&gt;">
			<g id="&lt;Group&gt;">
				<g id="&lt;Group&gt;">
					<g id="&lt;Group&gt;">
						<g id="&lt;Clip Group&gt;" clip-path="url(#cp1)">
							<path id="&lt;Path&gt;" class="shp0" d="M25.99 2710.11L67.76 2788.67L25.99 2788.67L25.99 2710.11Z" />
							<path id="&lt;Path&gt;" class="shp0" d="M25.99 2700.34L72.96 2788.67L67.76 2788.67L25.99 2710.11L25.99 2700.34Z" />
							<path id="&lt;Path&gt;" class="shp0" d="M25.99 2690.56L78.16 2788.67L72.96 2788.67L25.99 2700.34L25.99 2690.56Z" />
							<path id="&lt;Path&gt;" class="shp0" d="M25.99 2680.79L83.35 2788.67L78.16 2788.67L25.99 2690.56L25.99 2680.79Z" />
							<path id="&lt;Path&gt;" class="shp0" d="M25.99 2671.02L88.55 2788.67L83.35 2788.67L25.99 2680.79L25.99 2671.02Z" />
							<path id="&lt;Path&gt;" class="shp0" d="M25.99 2661.25L93.75 2788.67L88.55 2788.67L25.99 2671.02L25.99 2661.25Z" />
							<path id="&lt;Path&gt;" class="shp0" d="M25.99 2651.47L98.94 2788.67L93.75 2788.67L25.99 2661.25L25.99 2651.47Z" />
							<path id="&lt;Path&gt;" class="shp1" d="M25.99 2641.7L104.14 2788.67L98.94 2788.67L25.99 2651.47L25.99 2641.7Z" />
							<path id="&lt;Path&gt;" class="shp1" d="M25.99 2631.93L109.34 2788.67L104.14 2788.67L25.99 2641.7L25.99 2631.93Z" />
							<path id="&lt;Path&gt;" class="shp1" d="M25.99 2622.16L114.53 2788.67L109.34 2788.67L25.99 2631.93L25.99 2622.16Z" />
							<path id="&lt;Path&gt;" class="shp1" d="M25.99 2612.38L119.73 2788.67L114.53 2788.67L25.99 2622.16L25.99 2612.38Z" />
							<path id="&lt;Path&gt;" class="shp1" d="M25.99 2602.61L124.93 2788.67L119.73 2788.67L25.99 2612.38L25.99 2602.61Z" />
							<path id="&lt;Path&gt;" class="shp2" d="M25.99 2592.84L130.12 2788.67L124.93 2788.67L25.99 2602.61L25.99 2592.84Z" />
							<path id="&lt;Path&gt;" class="shp2" d="M25.99 2583.06L135.32 2788.67L130.12 2788.67L25.99 2592.84L25.99 2583.06Z" />
							<path id="&lt;Path&gt;" class="shp2" d="M25.99 2573.29L140.52 2788.67L135.32 2788.67L25.99 2583.06L25.99 2573.29Z" />
							<path id="&lt;Path&gt;" class="shp3" d="M25.99 2563.52L145.71 2788.67L140.52 2788.67L25.99 2573.29L25.99 2563.52Z" />
							<path id="&lt;Path&gt;" class="shp3" d="M25.99 2553.75L150.91 2788.67L145.71 2788.67L25.99 2563.52L25.99 2553.75Z" />
							<path id="&lt;Path&gt;" class="shp3" d="M25.99 2543.97L156.11 2788.67L150.91 2788.67L25.99 2553.75L25.99 2543.97Z" />
							<path id="&lt;Path&gt;" class="shp4" d="M25.99 2534.2L161.31 2788.67L156.11 2788.67L25.99 2543.97L25.99 2534.2Z" />
							<path id="&lt;Path&gt;" class="shp4" d="M25.99 2524.43L166.5 2788.67L161.31 2788.67L25.99 2534.2L25.99 2524.43Z" />
							<path id="&lt;Path&gt;" class="shp4" d="M25.99 2514.65L171.7 2788.67L166.5 2788.67L25.99 2524.43L25.99 2514.65Z" />
							<path id="&lt;Path&gt;" class="shp5" d="M25.99 2504.88L176.9 2788.67L171.7 2788.67L25.99 2514.65L25.99 2504.88Z" />
							<path id="&lt;Path&gt;" class="shp5" d="M25.99 2495.11L182.09 2788.67L176.9 2788.67L25.99 2504.88L25.99 2495.11Z" />
							<path id="&lt;Path&gt;" class="shp5" d="M25.99 2485.34L187.29 2788.67L182.09 2788.67L25.99 2495.11L25.99 2485.34Z" />
							<path id="&lt;Path&gt;" class="shp6" d="M25.99 2483.21L29.16 2481.52L192.49 2788.67L187.29 2788.67L25.99 2485.34L25.99 2483.21Z" />
							<path id="&lt;Path&gt;" class="shp6" d="M29.16 2481.52L33.21 2479.37L197.68 2788.67L192.49 2788.67L29.16 2481.52Z" />
							<path id="&lt;Path&gt;" class="shp7" d="M33.21 2479.37L37.26 2477.22L202.88 2788.67L197.68 2788.67L33.21 2479.37Z" />
							<path id="&lt;Path&gt;" class="shp7" d="M37.26 2477.22L41.31 2475.06L208.08 2788.67L202.88 2788.67L37.26 2477.22Z" />
							<path id="&lt;Path&gt;" class="shp8" d="M41.31 2475.06L45.36 2472.91L213.27 2788.67L208.08 2788.67L41.31 2475.06Z" />
							<path id="&lt;Path&gt;" class="shp8" d="M45.36 2472.91L49.41 2470.75L218.47 2788.67L213.27 2788.67L45.36 2472.91Z" />
							<path id="&lt;Path&gt;" class="shp9" d="M49.41 2470.75L53.46 2468.6L223.67 2788.67L218.47 2788.67L49.41 2470.75Z" />
							<path id="&lt;Path&gt;" class="shp9" d="M53.46 2468.6L57.52 2466.44L228.86 2788.67L223.67 2788.67L53.46 2468.6Z" />
							<path id="&lt;Path&gt;" class="shp10" d="M57.52 2466.44L61.57 2464.29L234.06 2788.67L228.86 2788.67L57.52 2466.44Z" />
							<path id="&lt;Path&gt;" class="shp10" d="M61.57 2464.29L65.62 2462.14L239.26 2788.67L234.06 2788.67L61.57 2464.29Z" />
							<path id="&lt;Path&gt;" class="shp11" d="M65.62 2462.14L69.67 2459.98L244.45 2788.67L239.26 2788.67L65.62 2462.14Z" />
							<path id="&lt;Path&gt;" class="shp11" d="M69.67 2459.98L73.72 2457.83L249.65 2788.67L244.45 2788.67L69.67 2459.98Z" />
							<path id="&lt;Path&gt;" class="shp12" d="M73.72 2457.83L77.77 2455.67L254.85 2788.67L249.65 2788.67L73.72 2457.83Z" />
							<path id="&lt;Path&gt;" class="shp12" d="M77.77 2455.67L81.82 2453.52L260.04 2788.67L254.85 2788.67L77.77 2455.67Z" />
							<path id="&lt;Path&gt;" class="shp13" d="M81.82 2453.52L85.87 2451.36L265.24 2788.67L260.04 2788.67L81.82 2453.52Z" />
							<path id="&lt;Path&gt;" class="shp14" d="M85.87 2451.36L89.93 2449.21L270.44 2788.67L265.24 2788.67L85.87 2451.36Z" />
							<path id="&lt;Path&gt;" class="shp15" d="M89.93 2449.21L93.98 2447.06L275.63 2788.67L270.44 2788.67L89.93 2449.21Z" />
							<path id="&lt;Path&gt;" class="shp16" d="M93.98 2447.06L98.03 2444.9L280.83 2788.67L275.63 2788.67L93.98 2447.06Z" />
							<path id="&lt;Path&gt;" class="shp16" d="M98.03 2444.9L102.08 2442.75L286.03 2788.67L280.83 2788.67L98.03 2444.9Z" />
							<path id="&lt;Path&gt;" class="shp17" d="M102.08 2442.75L106.13 2440.59L291.22 2788.67L286.03 2788.67L102.08 2442.75Z" />
							<path id="&lt;Path&gt;" class="shp18" d="M106.13 2440.59L110.18 2438.44L296.42 2788.67L291.22 2788.67L106.13 2440.59Z" />
							<path id="&lt;Path&gt;" class="shp18" d="M110.18 2438.44L114.23 2436.29L301.62 2788.67L296.42 2788.67L110.18 2438.44Z" />
							<path id="&lt;Path&gt;" class="shp19" d="M114.23 2436.29L118.28 2434.13L306.81 2788.67L301.62 2788.67L114.23 2436.29Z" />
							<path id="&lt;Path&gt;" class="shp20" d="M118.28 2434.13L122.33 2431.98L312.01 2788.67L306.81 2788.67L118.28 2434.13Z" />
							<path id="&lt;Path&gt;" class="shp20" d="M122.33 2431.98L126.39 2429.82L317.21 2788.67L312.01 2788.67L122.33 2431.98Z" />
							<path id="&lt;Path&gt;" class="shp21" d="M126.39 2429.82L130.44 2427.67L322.4 2788.67L317.21 2788.67L126.39 2429.82Z" />
							<path id="&lt;Path&gt;" class="shp22" d="M130.44 2427.67L134.49 2425.51L327.6 2788.67L322.4 2788.67L130.44 2427.67Z" />
							<path id="&lt;Path&gt;" class="shp23" d="M134.49 2425.51L138.54 2423.36L332.8 2788.67L327.6 2788.67L134.49 2425.51Z" />
							<path id="&lt;Path&gt;" class="shp24" d="M138.54 2423.36L142.59 2421.21L337.99 2788.67L332.8 2788.67L138.54 2423.36Z" />
							<path id="&lt;Path&gt;" class="shp25" d="M142.59 2421.21L146.64 2419.05L343.19 2788.67L337.99 2788.67L142.59 2421.21Z" />
							<path id="&lt;Path&gt;" class="shp26" d="M146.64 2419.05L150.69 2416.9L348.39 2788.67L343.19 2788.67L146.64 2419.05Z" />
							<path id="&lt;Path&gt;" class="shp27" d="M150.69 2416.9L154.74 2414.74L353.58 2788.67L348.39 2788.67L150.69 2416.9Z" />
							<path id="&lt;Path&gt;" class="shp27" d="M154.74 2414.74L158.8 2412.59L358.78 2788.67L353.58 2788.67L154.74 2414.74Z" />
							<path id="&lt;Path&gt;" class="shp28" d="M158.8 2412.59L162.85 2410.43L363.98 2788.67L358.78 2788.67L158.8 2412.59Z" />
							<path id="&lt;Path&gt;" class="shp29" d="M162.85 2410.43L166.9 2408.28L369.17 2788.67L363.98 2788.67L162.85 2410.43Z" />
							<path id="&lt;Path&gt;" class="shp30" d="M166.9 2408.28L170.95 2406.13L374.37 2788.67L369.17 2788.67L166.9 2408.28Z" />
							<path id="&lt;Path&gt;" class="shp31" d="M170.95 2406.13L175 2403.97L379.57 2788.67L374.37 2788.67L170.95 2406.13Z" />
							<path id="&lt;Path&gt;" class="shp31" d="M175 2403.97L179.05 2401.82L384.77 2788.67L379.57 2788.67L175 2403.97Z" />
							<path id="&lt;Path&gt;" class="shp32" d="M179.05 2401.82L183.1 2399.66L389.96 2788.67L384.77 2788.67L179.05 2401.82Z" />
							<path id="&lt;Path&gt;" class="shp33" d="M183.1 2399.66L187.15 2397.51L395.16 2788.67L389.96 2788.67L183.1 2399.66Z" />
							<path id="&lt;Path&gt;" class="shp34" d="M187.15 2397.51L191.21 2395.35L400.36 2788.67L395.16 2788.67L187.15 2397.51Z" />
							<path id="&lt;Path&gt;" class="shp35" d="M191.21 2395.35L195.26 2393.2L405.55 2788.67L400.36 2788.67L191.21 2395.35Z" />
							<path id="&lt;Path&gt;" class="shp36" d="M195.26 2393.2L199.31 2391.05L410.75 2788.67L405.55 2788.67L195.26 2393.2Z" />
							<path id="&lt;Path&gt;" class="shp36" d="M199.31 2391.05L203.36 2388.89L415.95 2788.67L410.75 2788.67L199.31 2391.05Z" />
							<path id="&lt;Path&gt;" class="shp37" d="M203.36 2388.89L207.41 2386.74L421.14 2788.67L415.95 2788.67L203.36 2388.89Z" />
							<path id="&lt;Path&gt;" class="shp38" d="M207.41 2386.74L211.46 2384.58L426.34 2788.67L421.14 2788.67L207.41 2386.74Z" />
							<path id="&lt;Path&gt;" class="shp39" d="M211.46 2384.58L215.51 2382.43L431.54 2788.67L426.34 2788.67L211.46 2384.58Z" />
							<path id="&lt;Path&gt;" class="shp40" d="M215.51 2382.43L219.56 2380.27L436.73 2788.67L431.54 2788.67L215.51 2382.43Z" />
							<path id="&lt;Path&gt;" class="shp41" d="M219.56 2380.27L223.61 2378.12L441.93 2788.67L436.73 2788.67L219.56 2380.27Z" />
							<path id="&lt;Path&gt;" class="shp42" d="M223.61 2378.12L227.67 2375.97L447.13 2788.67L441.93 2788.67L223.61 2378.12Z" />
							<path id="&lt;Path&gt;" class="shp43" d="M227.67 2375.97L231.72 2373.81L452.32 2788.67L447.13 2788.67L227.67 2375.97Z" />
							<path id="&lt;Path&gt;" class="shp44" d="M231.72 2373.81L235.77 2371.66L457.52 2788.67L452.32 2788.67L231.72 2373.81Z" />
							<path id="&lt;Path&gt;" class="shp45" d="M235.77 2371.66L239.82 2369.5L462.72 2788.67L457.52 2788.67L235.77 2371.66Z" />
							<path id="&lt;Path&gt;" class="shp46" d="M239.82 2369.5L243.87 2367.35L467.91 2788.67L462.72 2788.67L239.82 2369.5Z" />
							<path id="&lt;Path&gt;" class="shp47" d="M243.87 2367.35L247.92 2365.19L473.11 2788.67L467.91 2788.67L243.87 2367.35Z" />
							<path id="&lt;Path&gt;" class="shp48" d="M247.92 2365.19L251.97 2363.04L478.31 2788.67L473.11 2788.67L247.92 2365.19Z" />
							<path id="&lt;Path&gt;" class="shp49" d="M251.97 2363.04L256.02 2360.89L483.5 2788.67L478.31 2788.67L251.97 2363.04Z" />
							<path id="&lt;Path&gt;" class="shp50" d="M256.02 2360.89L260.08 2358.73L488.7 2788.67L483.5 2788.67L256.02 2360.89Z" />
							<path id="&lt;Path&gt;" class="shp51" d="M260.08 2358.73L264.13 2356.58L493.9 2788.67L488.7 2788.67L260.08 2358.73Z" />
							<path id="&lt;Path&gt;" class="shp52" d="M264.13 2356.58L268.18 2354.42L499.09 2788.67L493.9 2788.67L264.13 2356.58Z" />
							<path id="&lt;Path&gt;" class="shp53" d="M268.18 2354.42L272.23 2352.27L504.29 2788.67L499.09 2788.67L268.18 2354.42Z" />
							<path id="&lt;Path&gt;" class="shp54" d="M272.23 2352.27L276.28 2350.11L509.49 2788.67L504.29 2788.67L272.23 2352.27Z" />
							<path id="&lt;Path&gt;" class="shp55" d="M276.28 2350.11L280.33 2347.96L514.68 2788.67L509.49 2788.67L276.28 2350.11Z" />
							<path id="&lt;Path&gt;" class="shp56" d="M280.33 2347.96L284.38 2345.81L519.88 2788.67L514.68 2788.67L280.33 2347.96Z" />
							<path id="&lt;Path&gt;" class="shp57" d="M284.38 2345.81L288.43 2343.65L523.96 2786.57L520 2788.67L519.88 2788.67L284.38 2345.81Z" />
							<path id="&lt;Path&gt;" class="shp58" d="M288.43 2343.65L292.49 2341.5L528.01 2784.41L523.96 2786.57L288.43 2343.65Z" />
							<path id="&lt;Path&gt;" class="shp59" d="M292.49 2341.5L296.54 2339.34L532.06 2782.26L528.01 2784.41L292.49 2341.5Z" />
							<path id="&lt;Path&gt;" class="shp60" d="M296.54 2339.34L300.59 2337.19L536.11 2780.1L532.06 2782.26L296.54 2339.34Z" />
							<path id="&lt;Path&gt;" class="shp61" d="M300.59 2337.19L304.64 2335.03L540.16 2777.95L536.11 2780.1L300.59 2337.19Z" />
							<path id="&lt;Path&gt;" class="shp62" d="M304.64 2335.03L308.69 2332.88L544.21 2775.8L540.16 2777.95L304.64 2335.03Z" />
							<path id="&lt;Path&gt;" class="shp63" d="M308.69 2332.88L312.74 2330.73L548.27 2773.64L544.21 2775.8L308.69 2332.88Z" />
							<path id="&lt;Path&gt;" class="shp64" d="M312.74 2330.73L316.79 2328.57L552.32 2771.49L548.27 2773.64L312.74 2330.73Z" />
							<path id="&lt;Path&gt;" class="shp65" d="M316.79 2328.57L320.84 2326.42L556.37 2769.33L552.32 2771.49L316.79 2328.57Z" />
							<path id="&lt;Path&gt;" class="shp66" d="M320.84 2326.42L324.89 2324.26L560.42 2767.18L556.37 2769.33L320.84 2326.42Z" />
							<path id="&lt;Path&gt;" class="shp67" d="M324.89 2324.26L328.95 2322.11L564.47 2765.03L560.42 2767.18L324.89 2324.26Z" />
							<path id="&lt;Path&gt;" class="shp68" d="M328.95 2322.11L333 2319.96L568.52 2762.87L564.47 2765.03L328.95 2322.11Z" />
							<path id="&lt;Path&gt;" class="shp69" d="M333 2319.96L337.05 2317.8L572.57 2760.72L568.52 2762.87L333 2319.96Z" />
							<path id="&lt;Path&gt;" class="shp70" d="M337.05 2317.8L341.1 2315.65L576.62 2758.56L572.57 2760.72L337.05 2317.8Z" />
							<path id="&lt;Path&gt;" class="shp71" d="M341.1 2315.65L345.15 2313.49L580.68 2756.41L576.62 2758.56L341.1 2315.65Z" />
							<path id="&lt;Path&gt;" class="shp72" d="M345.15 2313.49L349.2 2311.34L584.73 2754.25L580.68 2756.41L345.15 2313.49Z" />
							<path id="&lt;Path&gt;" class="shp73" d="M349.2 2311.34L353.25 2309.18L588.78 2752.1L584.73 2754.25L349.2 2311.34Z" />
							<path id="&lt;Path&gt;" class="shp74" d="M353.25 2309.18L357.3 2307.03L592.83 2749.95L588.78 2752.1L353.25 2309.18Z" />
							<path id="&lt;Path&gt;" class="shp75" d="M357.3 2307.03L361.36 2304.88L596.88 2747.79L592.83 2749.95L357.3 2307.03Z" />
							<path id="&lt;Path&gt;" class="shp76" d="M361.36 2304.88L365.41 2302.72L600.93 2745.64L596.88 2747.79L361.36 2304.88Z" />
							<path id="&lt;Path&gt;" class="shp77" d="M365.41 2302.72L369.46 2300.57L604.98 2743.48L600.93 2745.64L365.41 2302.72Z" />
							<path id="&lt;Path&gt;" class="shp78" d="M369.46 2300.57L373.51 2298.41L609.03 2741.33L604.98 2743.48L369.46 2300.57Z" />
							<path id="&lt;Path&gt;" class="shp79" d="M373.51 2298.41L377.56 2296.26L613.08 2739.17L609.03 2741.33L373.51 2298.41Z" />
							<path id="&lt;Path&gt;" class="shp80" d="M377.56 2296.26L381.61 2294.1L617.14 2737.02L613.08 2739.17L377.56 2296.26Z" />
							<path id="&lt;Path&gt;" class="shp81" d="M381.61 2294.1L385.66 2291.95L621.19 2734.87L617.14 2737.02L381.61 2294.1Z" />
							<path id="&lt;Path&gt;" class="shp82" d="M385.66 2291.95L389.71 2289.8L625.24 2732.71L621.19 2734.87L385.66 2291.95Z" />
							<path id="&lt;Path&gt;" class="shp83" d="M389.71 2289.8L393.77 2287.64L629.29 2730.56L625.24 2732.71L389.71 2289.8Z" />
							<path id="&lt;Path&gt;" class="shp84" d="M393.77 2287.64L397.82 2285.49L633.34 2728.4L629.29 2730.56L393.77 2287.64Z" />
							<path id="&lt;Path&gt;" class="shp85" d="M397.82 2285.49L401.87 2283.33L637.39 2726.25L633.34 2728.4L397.82 2285.49Z" />
							<path id="&lt;Path&gt;" class="shp86" d="M401.87 2283.33L405.92 2281.18L641.44 2724.09L637.39 2726.25L401.87 2283.33Z" />
							<path id="&lt;Path&gt;" class="shp87" d="M405.92 2281.18L409.97 2279.02L645.49 2721.94L641.44 2724.09L405.92 2281.18Z" />
							<path id="&lt;Path&gt;" class="shp88" d="M409.97 2279.02L414.02 2276.87L649.55 2719.79L645.49 2721.94L409.97 2279.02Z" />
							<path id="&lt;Path&gt;" class="shp89" d="M414.02 2276.87L418.07 2274.72L653.6 2717.63L649.55 2719.79L414.02 2276.87Z" />
							<path id="&lt;Path&gt;" class="shp90" d="M418.07 2274.72L422.12 2272.56L657.65 2715.48L653.6 2717.63L418.07 2274.72Z" />
							<path id="&lt;Path&gt;" class="shp91" d="M422.12 2272.56L426.17 2270.41L661.7 2713.32L657.65 2715.48L422.12 2272.56Z" />
							<path id="&lt;Path&gt;" class="shp92" d="M426.17 2270.41L430.23 2268.25L665.75 2711.17L661.7 2713.32L426.17 2270.41Z" />
							<path id="&lt;Path&gt;" class="shp93" d="M430.23 2268.25L434.28 2266.1L669.8 2709.01L665.75 2711.17L430.23 2268.25Z" />
							<path id="&lt;Path&gt;" class="shp94" d="M434.28 2266.1L438.33 2263.94L673.85 2706.86L669.8 2709.01L434.28 2266.1Z" />
							<path id="&lt;Path&gt;" class="shp95" d="M438.33 2263.94L442.38 2261.79L677.9 2704.71L673.85 2706.86L438.33 2263.94Z" />
							<path id="&lt;Path&gt;" class="shp96" d="M442.38 2261.79L446.43 2259.64L681.96 2702.55L677.9 2704.71L442.38 2261.79Z" />
							<path id="&lt;Path&gt;" class="shp97" d="M446.43 2259.64L450.48 2257.48L686.01 2700.4L681.96 2702.55L446.43 2259.64Z" />
							<path id="&lt;Path&gt;" class="shp98" d="M450.48 2257.48L454.53 2255.33L690.06 2698.24L686.01 2700.4L450.48 2257.48Z" />
							<path id="&lt;Path&gt;" class="shp99" d="M454.53 2255.33L458.58 2253.17L694.11 2696.09L690.06 2698.24L454.53 2255.33Z" />
							<path id="&lt;Path&gt;" class="shp100" d="M458.58 2253.17L462.64 2251.02L698.16 2693.93L694.11 2696.09L458.58 2253.17Z" />
							<path id="&lt;Path&gt;" class="shp101" d="M462.64 2251.02L466.69 2248.86L702.21 2691.78L698.16 2693.93L462.64 2251.02Z" />
							<path id="&lt;Path&gt;" class="shp102" d="M466.69 2248.86L470.74 2246.71L706.26 2689.63L702.21 2691.78L466.69 2248.86Z" />
							<path id="&lt;Path&gt;" class="shp103" d="M470.74 2246.71L474.79 2244.56L710.31 2687.47L706.26 2689.63L470.74 2246.71Z" />
							<path id="&lt;Path&gt;" class="shp104" d="M474.79 2244.56L478.84 2242.4L714.36 2685.32L710.31 2687.47L474.79 2244.56Z" />
							<path id="&lt;Path&gt;" class="shp105" d="M478.84 2242.4L482.89 2240.25L718.42 2683.16L714.36 2685.32L478.84 2242.4Z" />
							<path id="&lt;Path&gt;" class="shp106" d="M482.89 2240.25L486.94 2238.09L722.47 2681.01L718.42 2683.16L482.89 2240.25Z" />
							<path id="&lt;Path&gt;" class="shp107" d="M486.94 2238.09L490.99 2235.94L726.52 2678.85L722.47 2681.01L486.94 2238.09Z" />
							<path id="&lt;Path&gt;" class="shp108" d="M490.99 2235.94L495.05 2233.78L730.57 2676.7L726.52 2678.85L490.99 2235.94Z" />
							<path id="&lt;Path&gt;" class="shp109" d="M495.05 2233.78L499.1 2231.63L734.62 2674.55L730.57 2676.7L495.05 2233.78Z" />
							<path id="&lt;Path&gt;" class="shp110" d="M499.1 2231.63L503.15 2229.48L738.67 2672.39L734.62 2674.55L499.1 2231.63Z" />
							<path id="&lt;Path&gt;" class="shp111" d="M503.15 2229.48L507.2 2227.32L742.72 2670.24L738.67 2672.39L503.15 2229.48Z" />
							<path id="&lt;Path&gt;" class="shp112" d="M507.2 2227.32L511.25 2225.17L746.77 2668.08L742.72 2670.24L507.2 2227.32Z" />
							<path id="&lt;Path&gt;" class="shp113" d="M511.25 2225.17L515.3 2223.01L750.83 2665.93L746.77 2668.08L511.25 2225.17Z" />
							<path id="&lt;Path&gt;" class="shp114" d="M515.3 2223.01L519.35 2220.86L754.88 2663.77L750.83 2665.93L515.3 2223.01Z" />
							<path id="&lt;Path&gt;" class="shp115" d="M519.35 2220.86L523.4 2218.71L758.93 2661.62L754.88 2663.77L519.35 2220.86Z" />
							<path id="&lt;Path&gt;" class="shp116" d="M523.4 2218.71L527.45 2216.55L762.98 2659.47L758.93 2661.62L523.4 2218.71Z" />
							<path id="&lt;Path&gt;" class="shp117" d="M527.45 2216.55L531.51 2214.4L767.03 2657.31L762.98 2659.47L527.45 2216.55Z" />
							<path id="&lt;Path&gt;" class="shp118" d="M531.51 2214.4L535.56 2212.24L771.08 2655.16L767.03 2657.31L531.51 2214.4Z" />
							<path id="&lt;Path&gt;" class="shp119" d="M535.56 2212.24L539.61 2210.09L775.13 2653L771.08 2655.16L535.56 2212.24Z" />
							<path id="&lt;Path&gt;" class="shp120" d="M539.61 2210.09L542.33 2208.64L544.04 2208.64L779.18 2650.85L775.13 2653L539.61 2210.09Z" />
							<path id="&lt;Path&gt;" class="shp121" d="M549.23 2208.64L783.23 2648.7L779.18 2650.85L544.04 2208.64L549.23 2208.64Z" />
							<path id="&lt;Path&gt;" class="shp122" d="M554.43 2208.64L787.29 2646.54L783.23 2648.7L549.23 2208.64L554.43 2208.64Z" />
							<path id="&lt;Path&gt;" class="shp123" d="M559.63 2208.64L791.34 2644.39L787.29 2646.54L554.43 2208.64L559.63 2208.64Z" />
							<path id="&lt;Path&gt;" class="shp124" d="M564.82 2208.64L795.39 2642.23L791.34 2644.39L559.63 2208.64L564.82 2208.64Z" />
							<path id="&lt;Path&gt;" class="shp125" d="M570.02 2208.64L799.44 2640.08L795.39 2642.23L564.82 2208.64L570.02 2208.64Z" />
							<path id="&lt;Path&gt;" class="shp126" d="M575.22 2208.64L803.49 2637.92L799.44 2640.08L570.02 2208.64L575.22 2208.64Z" />
							<path id="&lt;Path&gt;" class="shp127" d="M580.41 2208.64L807.54 2635.77L803.49 2637.92L575.22 2208.64L580.41 2208.64Z" />
							<path id="&lt;Path&gt;" class="shp128" d="M585.61 2208.64L811.59 2633.62L807.54 2635.77L580.41 2208.64L585.61 2208.64Z" />
							<path id="&lt;Path&gt;" class="shp129" d="M590.81 2208.64L813.62 2627.66L813.62 2632.54L811.59 2633.62L585.61 2208.64L590.81 2208.64Z" />
							<path id="&lt;Path&gt;" class="shp130" d="M596 2208.64L813.62 2617.89L813.62 2627.66L590.81 2208.64L596 2208.64Z" />
							<path id="&lt;Path&gt;" class="shp131" d="M601.2 2208.64L813.62 2608.12L813.62 2617.89L596 2208.64L601.2 2208.64Z" />
							<path id="&lt;Path&gt;" class="shp132" d="M606.4 2208.64L813.62 2598.34L813.62 2608.12L601.2 2208.64L606.4 2208.64Z" />
							<path id="&lt;Path&gt;" class="shp133" d="M611.59 2208.64L813.62 2588.57L813.62 2598.34L606.4 2208.64L611.59 2208.64Z" />
							<path id="&lt;Path&gt;" class="shp134" d="M616.79 2208.64L813.62 2578.8L813.62 2588.57L611.59 2208.64L616.79 2208.64Z" />
							<path id="&lt;Path&gt;" class="shp135" d="M621.99 2208.64L813.62 2569.03L813.62 2578.8L616.79 2208.64L621.99 2208.64Z" />
							<path id="&lt;Path&gt;" class="shp136" d="M627.18 2208.64L813.62 2559.25L813.62 2569.03L621.99 2208.64L627.18 2208.64Z" />
							<path id="&lt;Path&gt;" class="shp137" d="M632.38 2208.64L813.62 2549.48L813.62 2559.25L627.18 2208.64L632.38 2208.64Z" />
							<path id="&lt;Path&gt;" class="shp138" d="M637.58 2208.64L813.62 2539.71L813.62 2549.48L632.38 2208.64L637.58 2208.64Z" />
							<path id="&lt;Path&gt;" class="shp139" d="M642.77 2208.64L813.62 2529.93L813.62 2539.71L637.58 2208.64L642.77 2208.64Z" />
							<path id="&lt;Path&gt;" class="shp140" d="M647.97 2208.64L813.62 2520.16L813.62 2529.93L642.77 2208.64L647.97 2208.64Z" />
							<path id="&lt;Path&gt;" class="shp141" d="M653.17 2208.64L813.62 2510.39L813.62 2520.16L647.97 2208.64L653.17 2208.64Z" />
							<path id="&lt;Path&gt;" class="shp142" d="M658.36 2208.64L813.62 2500.62L813.62 2510.39L653.17 2208.64L658.36 2208.64Z" />
							<path id="&lt;Path&gt;" class="shp143" d="M663.56 2208.64L813.62 2490.84L813.62 2500.62L658.36 2208.64L663.56 2208.64Z" />
							<path id="&lt;Path&gt;" class="shp143" d="M813.62 2490.84L663.56 2208.64L813.62 2208.64L813.62 2490.84Z" />
						</g>
					</g>
					<g id="&lt;Group&gt;" style="opacity: 0.502">
						<g id="&lt;Group&gt;">
							<path id="&lt;Path&gt;" class="shp144" d="M166.61 2669.09C307.14 2547.2 286.09 2404.8 440.26 2337.9C568.88 2282.08 676.34 2317.15 762.65 2443.12C765.66 2456.71 767.5 2473.77 768.17 2494.27C771.64 2457.91 770.26 2425.69 764.04 2397.59C677.73 2271.63 570.26 2236.55 441.64 2292.37C248.7 2376.1 330.23 2578.07 25.99 2710.11C78.51 2687.32 124.86 2674.74 166.61 2669.09Z" />
						</g>
					</g>
					<g id="&lt;Group&gt;" style="opacity: 0.302">
						<path id="&lt;Path&gt;" class="shp145" d="M760.46 2539.91C737.97 2575.64 703.63 2608.33 651.68 2630.87C492.11 2700.13 397.8 2568.05 197.82 2595C159.17 2635.92 105.9 2675.43 25.99 2710.11C330.23 2578.07 427.76 2788.67 620.69 2704.94C707.58 2667.23 745.26 2601.16 760.46 2539.91Z" />
					</g>
					<g id="&lt;Group&gt;">
						<path id="&lt;Path&gt;" class="shp146" d="M266.89 2610.19C444.02 2533.32 563.87 2655.87 676.19 2607.12C751.07 2574.62 774.98 2505.97 747.92 2401.17C689.86 2309.83 623.39 2280.4 548.5 2312.9C436.18 2361.65 444.02 2533.32 266.89 2610.19Z" />
					</g>
					<g id="&lt;Group&gt;">
						<path id="&lt;Compound Path&gt;" fill-rule="evenodd" class="shp145" d="M523.62 2742.08C476.11 2742.08 431.71 2729.25 385.8 2715.98C292.91 2689.14 187.63 2658.72 23.68 2729.87C15.36 2733.48 5.69 2729.67 2.08 2721.35C1.16 2719.22 0.72 2717 0.72 2714.82C0.72 2708.48 4.42 2702.44 10.61 2699.75C174.79 2628.5 226.04 2534.28 271.25 2451.16C308.86 2382 344.39 2316.68 435.1 2277.31C519.29 2240.77 605.41 2248.56 684.14 2299.83C742.69 2337.94 776.18 2386.27 777.58 2388.32C778.77 2390.05 779.61 2391.99 780.06 2394.04C780.6 2396.45 793.03 2453.92 780.88 2522.72C764.54 2615.25 711.41 2683.46 627.23 2720C590.24 2736.05 556.19 2742.08 523.62 2742.08ZM216.87 2652.76C285.28 2652.76 342 2669.15 394.91 2684.44C469.56 2706.01 534.04 2724.64 614.15 2689.88C780.72 2617.6 753.37 2430.53 748.61 2404.22C732.03 2381.52 616.23 2234.48 448.18 2307.43C367.83 2342.3 336.44 2400.01 300.09 2466.84C266.32 2528.93 229.37 2596.87 148.87 2658.13C172.85 2654.37 195.43 2652.76 216.87 2652.76Z" />
					</g>
				</g>
				<g id="&lt;Group&gt;">
					<path id="&lt;Path&gt;" class="shp144" d="M1757.98 1412.24C1900.16 1471.99 1983.3 1520.33 2007.4 1557.27C2031.5 1594.21 1999.37 1613.13 1911.01 1614.03" />
				</g>
				<g id="&lt;Group&gt;">
					<path id="&lt;Compound Path&gt;" fill-rule="evenodd" class="shp145" d="M1911.01 1632.96C1905.09 1632.96 1899.5 1630.19 1895.92 1625.47L1742.89 1423.68C1737.72 1416.86 1737.77 1407.41 1743.02 1400.64C1748.27 1393.87 1757.42 1391.47 1765.31 1394.79C1787.69 1404.19 1985.04 1488.35 2023.26 1546.92C2036.68 1567.49 2033.22 1583.52 2027.97 1593.35C2008.79 1629.19 1933.74 1632.73 1911.2 1632.96C1911.14 1632.96 1911.07 1632.96 1911.01 1632.96ZM1817.86 1459.87L1920.2 1594.82C1955.64 1593.14 1989.76 1584.52 1994.58 1575.49C1995.04 1574.63 1994.13 1571.58 1991.54 1567.62C1973.45 1539.89 1891.54 1494.85 1817.86 1459.87Z" />
				</g>
				<g id="&lt;Group&gt;">
					<g id="&lt;Group&gt;">
						<path id="&lt;Path&gt;" class="shp144" d="M862.7 942.35C779.86 1004.44 703.94 1300.09 723.13 1476.32C742.32 1652.56 1053.85 1665.76 1232 1660.04C1410.16 1654.33 1409.54 1251.5 1407.21 1143.6C1403.56 975.1 985.46 850.35 862.7 942.35Z" />
					</g>
					<g id="&lt;Group&gt;" style="opacity: 0.251">
						<path id="&lt;Path&gt;" class="shp145" d="M1232.01 1660.04C1053.85 1665.76 742.34 1652.54 723.12 1476.31C720.62 1453.23 719.72 1428.12 720.3 1401.74C769.5 1440.43 838.05 1406 846.32 1358.71C897.36 1066.74 1006.09 954.69 1058.68 916.34C1218.96 938.8 1404.8 1031.5 1407.19 1143.61C1409.56 1251.5 1410.16 1654.33 1232.01 1660.04Z" />
					</g>
					<g id="&lt;Group&gt;">
						<path id="&lt;Compound Path&gt;" fill-rule="evenodd" class="shp145" d="M1169.9 1680C954.62 1680 722.07 1641.53 704.31 1478.37C685.75 1307.87 756.39 998.37 851.35 927.2C935.55 864.09 1129.79 894.21 1261.48 958.31C1366.18 1009.28 1424.66 1074.93 1426.14 1143.19C1430.41 1340.83 1410.96 1673.24 1232.61 1678.97C1212.02 1679.63 1191.04 1680 1169.9 1680ZM989.11 929.85C940.1 929.85 899 938.81 874.06 957.5C797.56 1014.83 723.48 1304.61 741.95 1474.28C759.19 1632.55 1056 1646.74 1231.4 1641.12C1386.84 1636.13 1390.78 1259.36 1388.28 1144.01C1387.14 1091.43 1334.88 1036.16 1244.9 992.36C1161.32 951.67 1065.59 929.85 989.11 929.85ZM862.7 942.35L862.76 942.35L862.7 942.35Z" />
					</g>
					<g id="&lt;Group&gt;">
						<path id="&lt;Path&gt;" class="shp144" d="M880.2 1238.05L801.13 1206.53C783.26 1199.41 763.15 1209.52 758.32 1228.14C741.71 1292.22 716.13 1425.02 780.6 1452.21C858.74 1485.16 886.44 1395.02 900.17 1271.19C901.75 1256.92 893.53 1243.36 880.2 1238.05Z" />
					</g>
					<g id="&lt;Group&gt;" style="opacity: 0.251">
						<path id="&lt;Path&gt;" class="shp145" d="M900.01 1270.99C886.57 1394.85 859.07 1485.08 780.87 1452.28C748.74 1438.86 738.88 1399.15 739.13 1354.79C745.65 1367.49 754.99 1377.32 768.07 1382.78C838.08 1412.11 867.49 1342.86 882.46 1239.08C894.37 1244.89 901.5 1257.65 900.01 1270.99Z" />
					</g>
					<g id="&lt;Group&gt;">
						<path id="&lt;Compound Path&gt;" fill-rule="evenodd" class="shp145" d="M811.01 1476.6C799.43 1476.6 787.1 1473.88 774.11 1468.43C702.64 1438.49 716.73 1318.94 741.13 1223.93C744.65 1210.21 753.92 1198.65 766.55 1192.21C779.22 1185.76 794.07 1185.06 807.29 1190.29L886.42 1221.64C907.07 1229.81 919.82 1250.89 917.43 1272.89C905.07 1386.69 883.6 1444.8 845.62 1467.2C835 1473.46 823.43 1476.6 811.01 1476.6ZM789.02 1221.79C786.77 1221.79 784.53 1222.33 782.44 1223.4C780.28 1224.5 776.44 1227.17 775.03 1232.63C752.81 1319.16 744.45 1418.06 787.64 1436.15C804.06 1443.03 817.21 1443.32 827.84 1437.05C866.9 1414.02 878.74 1304.95 882.63 1269.11C883.33 1262.71 879.59 1256.57 873.54 1254.18L794.4 1222.83C792.65 1222.14 790.83 1221.79 789.02 1221.79Z" />
					</g>
					<g id="&lt;Group&gt;">
						<path id="&lt;Path&gt;" class="shp145" d="M851.12 942.74L944.28 985.77C975.27 1000.34 1006.19 1014.74 1036.98 1030.4C1041.65 1032.77 1043.5 1038.47 1041.13 1043.14C1038.9 1047.53 1033.72 1049.43 1029.23 1047.66L1029.07 1047.6C997.69 1035.14 965.48 1023.61 933.45 1012.03L837.01 977.88L836.84 977.82C826.97 974.33 821.8 963.49 825.3 953.63C828.79 943.76 839.63 938.59 849.5 942.08C850.04 942.27 850.6 942.51 851.12 942.74Z" />
					</g>
				</g>
				<g id="&lt;Group&gt;">
					<path id="&lt;Path&gt;" class="shp144" d="M2282.38 885.75C2251.66 990.55 2018.36 1184.62 1683.66 1194.32C1651.28 1195.31 1617.96 1194.51 1583.78 1191.76L1553.91 1064.2L1530.01 962.1C1564.66 955.79 1605.66 946.33 1653.03 933.74C1709.17 918.88 1777.19 898.15 1840.95 871.64C1901.06 846.65 1957.44 816.5 1996.34 781.23C1997.76 711.24 2008.4 672.68 2028.25 665.55C2052.48 656.84 2073.58 677.1 2091.53 726.33C2146.63 669.62 2190.26 644.01 2222.41 649.5C2294.12 661.71 2316.13 770.82 2282.38 885.75Z" />
				</g>
				<g id="&lt;Group&gt;" style="opacity: 0.349">
					<path id="&lt;Path&gt;" class="shp145" d="M2297.44 800.07C2296.02 827.24 2291 856.31 2282.38 885.75C2248.68 1000.67 1971.35 1223 1583.78 1191.76L1530.01 962.1C1540.77 960.14 1555 957.21 1572.7 953.29L1635.54 1075.02C1955.67 1171.47 2244.85 918.31 2297.44 800.07Z" />
				</g>
				<g id="&lt;Group&gt;">
					<path id="&lt;Compound Path&gt;" class="shp145" d="M1657.31 1213.68C1632.76 1213.68 1607.77 1212.7 1582.28 1210.65C1571.86 1209.81 1564.09 1200.68 1564.93 1190.26C1565.77 1179.83 1574.94 1172.07 1585.32 1172.91C1967.57 1203.7 2234.45 981.84 2264.23 880.4C2285.47 807.99 2283.39 735.9 2258.93 696.73C2248.81 680.53 2235.47 670.93 2219.25 668.16C2192.82 663.66 2136.59 707.19 2105.12 739.54L2084.09 761.16L2073.76 732.83C2065.43 710.16 2046.29 679.81 2034.95 683.27C2025.57 689.97 2016.21 736.6 2015.26 781.61L2015.09 789.76L2009.04 795.25C1874.18 917.39 1547.27 978.2 1533.42 980.73C1523.14 982.6 1513.28 975.79 1511.4 965.51C1509.52 955.22 1516.33 945.36 1526.62 943.48C1529.86 942.89 1846.82 883.93 1977.65 772.43C1979.13 733.59 1986.64 660.4 2021.84 647.74C2057.56 634.86 2083.55 668.45 2097.61 694.24C2127.91 666.75 2183.26 623.63 2225.61 630.84C2252.56 635.42 2275.18 651.27 2291.05 676.67C2321.44 725.33 2325.09 807.48 2300.56 891.06C2266.2 1008.13 2012.95 1213.66 1657.31 1213.68Z" />
				</g>
				<g id="&lt;Group&gt;">
					<path id="&lt;Path&gt;" class="shp144" d="M1934.9 1645.51C1622.47 1766.34 1411.44 1822.43 1301.81 1813.78C1137.42 1800.81 960.34 1774.78 950.64 1462.89C944.63 1269.01 1040.53 1078.25 1113.99 961.72C1143.81 914.38 1170.85 876.22 1195.12 847.22L1647.63 870.32C1648.8 886.22 1650.6 907.36 1653.03 933.74C1655.3 958.45 1658.33 989.27 1662.17 1024.2C1667.66 1074.37 1674.76 1133.02 1683.66 1194.32C1697.29 1288.23 1715.13 1388.29 1737.62 1473.4C1747.32 1510.23 1901.82 1520.31 1934.9 1645.51Z" />
				</g>
				<g id="&lt;Group&gt;">
					<path id="&lt;Path&gt;" class="shp145" d="M1673.47 1068.05C1690.4 1123.25 1700.1 1179.05 1709.91 1234.81C1719.85 1290.51 1728.73 1346.33 1740.25 1401.51C1743.18 1415.29 1746.3 1429.01 1749.52 1442.7L1754.56 1463.15L1755.84 1468.26L1755.92 1468.57L1755.94 1468.51L1755.95 1468.38C1755.95 1468.3 1755.93 1468.22 1755.89 1468.15C1755.85 1468.09 1755.76 1468.02 1755.71 1467.99C1755.77 1468.01 1755.82 1468.03 1755.86 1468.07C1755.95 1468.14 1755.9 1468.2 1755.99 1468.36C1756.25 1468.58 1756.49 1468.82 1756.7 1469.07C1756.94 1469.53 1758.12 1470.29 1758.78 1470.95C1762.32 1473.82 1767.93 1477 1773.7 1479.93C1779.53 1482.91 1785.81 1485.79 1792.22 1488.71C1805.03 1494.52 1818.35 1500.47 1831.53 1507.14C1857.87 1520.42 1884.24 1536.65 1906.32 1559.11C1917.34 1570.27 1927.17 1582.91 1935.12 1596.71C1943.09 1610.51 1949.13 1625.41 1953.23 1640.67L1957.64 1657.12L1941.75 1663.17C1867.23 1691.54 1792.44 1717.85 1716.8 1742.57C1641.17 1767.15 1564.89 1790.06 1486.97 1808.46C1447.96 1817.52 1408.62 1825.69 1368 1830.26C1347.7 1832.58 1327.12 1834.11 1305.55 1832.88C1300.01 1832.74 1295.28 1832.22 1290.26 1831.83L1275.32 1830.54C1265.35 1829.63 1255.34 1828.66 1245.31 1827.46C1205.26 1822.76 1164.55 1815.66 1125.17 1801.16C1105.53 1793.91 1086.31 1784.74 1068.33 1773.26C1050.35 1761.8 1033.68 1748 1019.09 1732.31C1004.5 1716.6 992.18 1698.98 981.93 1680.5C971.7 1662 963.23 1642.65 956.93 1622.84L954.43 1615.44L952.34 1607.96L948.2 1592.98L944.81 1577.9L943.14 1570.35L941.81 1562.77L939.17 1547.62C938.38 1542.56 937.82 1537.49 937.13 1532.43C935.66 1522.3 934.81 1512.16 933.96 1502.02C930.59 1461.71 930.69 1420.4 935.03 1379.93C939.25 1339.41 947.13 1299.45 957.71 1260.38C978.87 1182.17 1010.83 1107.71 1048.45 1036.78C1067.26 1001.31 1086.06 965.69 1108.89 932.59C1131.73 899.57 1157 868.01 1190.27 843.19C1193.14 841.04 1197.21 841.64 1199.35 844.51C1200.81 846.46 1200.99 848.97 1200.06 851.05L1199.95 851.29C1183.33 887.96 1163.03 921.3 1142.41 954.45C1122.14 987.77 1100.26 1020.17 1081.94 1054.65C1045.24 1123.44 1014.5 1195.54 994.25 1270.3C984.14 1307.65 976.67 1345.63 972.69 1383.87C968.61 1422.16 968.5 1460.36 971.7 1498.94C972.51 1508.54 973.3 1518.13 974.69 1527.6C975.33 1532.34 975.85 1537.12 976.59 1541.84L979.06 1555.93L980.28 1562.98L981.83 1569.93L984.95 1583.82L988.72 1597.46L990.62 1604.28L992.88 1610.94C998.55 1628.87 1006.11 1645.95 1015.01 1662.08C1023.95 1678.18 1034.49 1693.24 1046.86 1706.57C1071.57 1733.3 1103.29 1752.85 1138.3 1765.64C1173.33 1778.57 1211.2 1785.35 1249.69 1789.84C1259.31 1791 1269.01 1791.94 1278.75 1792.83L1293.39 1794.1C1298.24 1794.47 1303.36 1795.01 1307.73 1795.08C1312.29 1795.16 1316.7 1795.66 1321.4 1795.43L1335.37 1795.1C1344.82 1794.39 1354.24 1793.88 1363.79 1792.63C1401.89 1788.37 1440.25 1780.45 1478.33 1771.59C1554.56 1753.6 1630.12 1730.93 1705.07 1706.56C1779.96 1682.09 1854.61 1655.83 1928.09 1627.85L1916.62 1650.35C1910.13 1625.88 1897.36 1603.82 1879.37 1585.7C1861.47 1567.45 1838.82 1553.2 1814.47 1540.95C1802.28 1534.77 1789.62 1529.11 1776.52 1523.17C1769.99 1520.2 1763.34 1517.15 1756.49 1513.66C1749.64 1510.1 1742.66 1506.47 1735.06 1500.47C1733.09 1498.73 1731.29 1497.48 1729.26 1495.17L1726.37 1491.95C1725.4 1490.69 1724.44 1489.21 1723.54 1487.81C1721.74 1485.44 1720.12 1480.71 1719.23 1477.93L1717.87 1472.7L1712.43 1451.79C1708.95 1437.84 1705.58 1423.86 1702.41 1409.85C1696.02 1381.86 1689.9 1353.84 1684.52 1325.69C1679.09 1297.56 1674.6 1269.29 1670.6 1240.97C1662.78 1184.32 1657.4 1127.32 1660.93 1069.53C1661.15 1066 1664.19 1063.3 1667.73 1063.52C1670.47 1063.69 1672.7 1065.58 1673.47 1068.05Z" />
				</g>
				<g id="&lt;Group&gt;">
					<path id="&lt;Path&gt;" class="shp147" d="M996.07 2598.39L914.97 2611C878.27 2616.71 841.41 2601.81 818.99 2572.21L818.99 2572.21C752.23 2484.07 710.85 2379.34 699.35 2269.37L699.35 2269.37C695.49 2232.43 712.22 2196.37 742.9 2175.46L810.73 2129.24" />
				</g>
				<g id="&lt;Group&gt;" style="opacity: 0.6">
					<g id="&lt;Group&gt;">
						<path id="&lt;Path&gt;" class="shp144" d="M825.15 2175.74L757.98 2221.51C741.05 2233.06 727.95 2248.79 719.59 2266.77C711.27 2284.73 707.69 2304.93 709.85 2325.35C711.49 2341.1 713.71 2356.77 716.46 2372.32C708.36 2341.93 702.63 2310.86 699.34 2279.35C697.4 2260.92 700.61 2242.63 708.18 2226.38C715.68 2210.14 727.54 2195.93 742.89 2185.45L810.73 2139.24L825.15 2175.74Z" />
					</g>
				</g>
				<g id="&lt;Group&gt;">
					<g id="&lt;Group&gt;" style="opacity: 0.349">
						<path id="&lt;Compound Path&gt;" fill-rule="evenodd" class="shp145" d="M750.45 2438.12C750.45 2438.12 750.45 2438.12 750.45 2438.12C750.45 2438.12 750.45 2438.12 750.45 2438.12C750.45 2438.12 750.45 2438.12 750.45 2438.12ZM750.45 2438.12C773.11 2463.42 807.16 2475.78 841.06 2470.5L922.19 2457.87L796.25 2139.11L906.72 2418.72L912.19 2417.87L800.82 2135.99L810.73 2129.24L980.59 2559.23L904.96 2571C868.26 2576.72 831.4 2561.83 808.99 2532.23C786.55 2502.6 766.99 2471.08 750.45 2438.12ZM800.82 2135.99L796.25 2139.11L800.82 2135.99L800.82 2135.99Z" />
					</g>
				</g>
				<g id="&lt;Group&gt;">
					<path id="&lt;Path&gt;" class="shp0" d="M1010.4 2004.63C968.24 1922.03 823.77 1812.73 539.59 1993.05C535.86 1995.42 536.99 2001.17 541.33 2001.95C588.62 2010.38 811.08 2048.28 851.81 2163.97" />
				</g>
				<g id="&lt;Group&gt;" style="opacity: 0.6">
					<g id="&lt;Group&gt;">
						<path id="&lt;Path&gt;" class="shp144" d="M587.45 2005.82C567.05 2001.46 550.72 1998.62 541.34 1996.94C536.98 1996.16 535.87 1990.44 539.59 1988.06C823.78 1807.73 968.24 1917.03 1010.41 1999.64L993.23 2016.89C938.72 1946.51 810.6 1882.32 587.45 2005.82Z" />
					</g>
				</g>
				<g id="&lt;Group&gt;">
					<path id="&lt;Path&gt;" class="shp145" d="M851.81 2182.91C844 2182.91 836.69 2178.04 833.95 2170.26C820.34 2131.58 764.08 2060.77 540.25 2020.98L538.01 2020.59C528.29 2018.85 520.77 2011.46 518.86 2001.76C516.95 1992.05 521.1 1982.36 529.45 1977.07C667.6 1889.4 788.05 1858.72 887.44 1885.89C975.14 1909.85 1014.44 1970.89 1027.27 1996.03C1032.02 2005.34 1028.32 2016.74 1019.01 2021.5C1009.69 2026.25 998.29 2022.55 993.54 2013.24C983 1992.59 950.59 1942.4 877.46 1922.42C797.2 1900.48 695.15 1923.92 580.76 1990.2C784.67 2032.38 850.71 2103.82 869.67 2157.68C873.14 2167.55 867.96 2178.36 858.1 2181.83C856.02 2182.56 853.9 2182.91 851.81 2182.91Z" />
				</g>
				<g id="&lt;Group&gt;">
					<path id="&lt;Path&gt;" class="shp148" d="M1223.43 2543.87C1249.1 2632.98 1220.24 2816.32 889.54 2878.9C885.21 2879.72 882.1 2874.76 884.74 2871.22C913.5 2832.75 1047.98 2647.93 998.64 2535.64" />
				</g>
				<g id="&lt;Group&gt;">
					<path id="&lt;Path&gt;" class="shp0" d="M889.55 2878.92C885.21 2879.7 882.11 2874.75 884.75 2871.21C899.47 2851.51 941.94 2793.4 973.22 2726.31C1002.81 2662.92 1022.38 2591.47 999.14 2536.85C998.98 2536.46 998.78 2536.04 998.62 2535.64L999.98 2535.69L1223.41 2543.86C1230.62 2568.87 1233.54 2601.31 1226.65 2636.43C1209.13 2726.39 1127.44 2833.87 889.55 2878.92Z" />
				</g>
				<g id="&lt;Group&gt;" style="opacity: 0.349">
					<path id="&lt;Path&gt;" class="shp145" d="M973.22 2726.31C1002.81 2662.92 1022.38 2591.47 999.14 2536.85C999.42 2536.47 999.7 2536.07 999.98 2535.69L1223.41 2543.86C1230.62 2568.87 1233.54 2601.31 1226.65 2636.43C1173.34 2681.66 1092.52 2717.19 973.22 2726.31Z" />
				</g>
				<g id="&lt;Group&gt;">
					<path id="&lt;Compound Path&gt;" fill-rule="evenodd" class="shp145" d="M888.56 2897.93C880.47 2897.93 872.89 2893.81 868.46 2886.72C863.22 2878.33 863.66 2867.79 869.58 2859.88C906.64 2810.3 1024.23 2640.94 981.31 2543.26C977.1 2533.68 981.45 2522.51 991.02 2518.31C1000.59 2514.1 1011.77 2518.45 1015.97 2528.02C1059.65 2627.42 976.93 2772.35 921.23 2852.89C1048.3 2823.38 1137.99 2770.74 1181.76 2699.6C1224 2630.95 1210.4 2567.06 1205.23 2549.11C1202.34 2539.06 1208.14 2528.57 1218.19 2525.67C1228.23 2522.77 1238.72 2528.57 1241.62 2538.63C1249.64 2566.46 1263.01 2639.81 1214.01 2719.44C1159.8 2807.55 1051.82 2867.46 893.07 2897.5C891.56 2897.79 890.05 2897.93 888.56 2897.93ZM886.03 2860.3C886.02 2860.3 886.01 2860.3 886.01 2860.3C886.02 2860.3 886.02 2860.3 886.03 2860.3Z" />
				</g>
				<g id="&lt;Group&gt;">
					<path id="&lt;Path&gt;" class="shp144" d="M2559.38 1707.47C2509.84 2022.62 2280.98 2277.53 1872.8 2472.2C1525.05 2638.02 1230.97 2680.09 990.54 2598.39C917.27 2516.69 864.07 2419.99 833.87 2316.09C816.35 2255.74 806.6 2192.97 805.23 2129.21C858.62 2029.24 957.8 1928.71 1102.77 1827.6C1110.25 1822.39 1117.92 1817.14 1125.73 1811.93C1210.65 1755.23 1315.02 1698.95 1441.87 1650.95C1471.79 1639.59 1502.98 1628.75 1535.45 1618.43C1536.73 1618.01 1538.01 1617.63 1539.29 1617.25C1670.31 1575.93 1790.2 1555.19 1898.08 1548.28C1901.53 1548.05 1904.94 1547.86 1908.35 1547.67C2185.92 1532.14 2402.93 1585.41 2559.38 1707.47Z" />
				</g>
				<g id="&lt;Group&gt;">
					<path id="&lt;Path&gt;" class="shp0" d="M2247.19 2226.39C2206.51 1983.14 2114.86 1751.14 1978.29 1545.71C2228.97 1544.03 2424.49 1597.95 2564.86 1707.47C2537.22 1883.32 2431.33 2056.29 2247.19 2226.39Z" />
				</g>
				<g id="&lt;Group&gt;" style="opacity: 0.6">
					<g id="&lt;Group&gt;">
						<path id="&lt;Path&gt;" class="shp144" d="M2557.06 1736.8C2560.96 1722.16 2563.56 1710.72 2564.86 1702.47C2424.49 1592.95 2228.97 1539.03 1978.29 1540.71C1987.11 1553.97 1995.73 1567.35 2004.17 1580.83C2322.9 1585.2 2516.95 1708.68 2557.06 1736.8Z" />
					</g>
				</g>
				<g id="&lt;Group&gt;">
					<path id="&lt;Compound Path&gt;" fill-rule="evenodd" class="shp145" d="M2234.3 2264.08L2228.52 2229.51C2188.01 1987.29 2098.52 1760.75 1962.52 1556.19L1943.12 1527.01L1978.16 1526.78C2276.21 1524.72 2473.06 1626.63 2543.88 1670.52C2570.55 1687.04 2582.98 1718.49 2574.8 1748.78C2553.08 1829.21 2478.92 2038.11 2260.04 2240.3L2234.3 2264.08ZM2013.37 1564.9C2135.19 1756.14 2217.92 1965.58 2259.69 2188.41C2451.76 2000.71 2518.23 1813 2538.24 1738.91C2542.02 1724.9 2536.27 1710.35 2523.94 1702.7C2458.7 1662.28 2281.85 1570.66 2013.37 1564.9Z" />
				</g>
				<g id="&lt;Group&gt;">
					<path id="&lt;Compound Path&gt;" fill-rule="evenodd" class="shp145" d="M1238.16 2647.51C1083.55 2647.51 993.72 2617.59 989.95 2616.3L985.26 2614.71L981.94 2611.02C922.77 2545.02 876.26 2469.77 843.7 2387.36C811.13 2304.93 793.67 2218.22 791.78 2129.64L791.68 2124.69L794.01 2120.32C795.91 2116.78 841.7 2032.32 956.42 1925.56C1061.59 1827.67 1247.39 1691.8 1535.23 1600.4C1686.14 1552.48 1835.16 1527.71 1978.17 1526.78L1988.4 1526.71L1994.06 1535.23C2132.69 1743.76 2224.04 1974.65 2265.57 2221.51L2269.33 2231.71L2260.06 2240.34C2155.03 2337.4 2029.31 2421.16 1886.39 2489.32C1613.8 2619.31 1385.3 2647.09 1241.62 2647.51C1240.47 2647.51 1239.3 2647.51 1238.16 2647.51ZM1006.68 2581.85C1026.72 2587.77 1111.64 2610.38 1243.53 2609.63C1382.93 2608.99 1604.79 2581.66 1870.09 2455.14C2006.15 2390.26 2126.11 2310.99 2226.81 2219.46C2186.11 1984.38 2099.13 1764.22 1968.18 1564.75C1832.1 1566.75 1690.36 1590.87 1546.69 1636.49C1042.3 1796.66 852.52 2095.44 829.77 2134.04C832.12 2216.31 848.65 2296.82 878.92 2373.45C909.18 2450.06 952.15 2520.15 1006.68 2581.85Z" />
				</g>
				<g id="&lt;Group&gt;">
					<path id="&lt;Path&gt;" class="shp145" d="M899.37 2631.15C862.2 2631.15 826.79 2613.87 803.9 2583.65C735.04 2492.74 692.38 2384.75 680.52 2271.33C675.93 2227.41 695.75 2184.68 732.24 2159.81L800.07 2113.59C808.72 2107.72 820.49 2109.94 826.38 2118.58C832.27 2127.22 830.03 2139 821.39 2144.89L753.57 2191.1C728.6 2208.12 715.04 2237.35 718.18 2267.4C729.32 2373.94 769.4 2475.39 834.08 2560.78C852.33 2584.87 882.2 2596.94 912.05 2592.29L993.16 2579.68C1003.49 2578.11 1013.17 2585.14 1014.78 2595.48C1016.38 2605.81 1009.31 2615.49 998.98 2617.1L917.87 2629.71C911.69 2630.67 905.5 2631.15 899.37 2631.15Z" />
				</g>
				<g id="&lt;Group&gt;" style="opacity: 0.349">
					<path id="&lt;Path&gt;" class="shp145" d="M1892.8 2282.89C1759.02 2335.74 1607.73 2270.14 1554.88 2136.36C1502.03 2002.58 1567.64 1851.29 1701.41 1798.44C1835.19 1745.59 1986.48 1811.2 2039.33 1944.98C2092.18 2078.75 2026.57 2230.04 1892.8 2282.89Z" />
				</g>
				<g id="&lt;Group&gt;">
					<path id="&lt;Path&gt;" class="shp0" d="M1888.91 2226.3C1768.61 2273.83 1632.57 2214.83 1585.04 2094.53C1537.52 1974.23 1596.51 1838.18 1716.81 1790.66C1837.11 1743.14 1973.16 1802.13 2020.68 1922.43C2068.21 2042.73 2009.21 2178.78 1888.91 2226.3Z" />
				</g>
				<g id="&lt;Group&gt;" style="opacity: 0.6">
					<g id="&lt;Group&gt;">
						<path id="&lt;Path&gt;" class="shp144" d="M2033.22 1970.97C2031.62 1965.89 2029.84 1960.86 2027.86 1955.85C1980.36 1835.56 1844.29 1776.58 1724 1824.09C1617.95 1865.97 1559.55 1976.64 1579.76 2084.69C1542.44 1968.23 1601.45 1841.24 1716.79 1795.65C1837.12 1748.14 1973.15 1807.13 2020.7 1927.45C2026.35 1941.79 2030.5 1956.37 2033.22 1970.97Z" />
					</g>
				</g>
				<g id="&lt;Group&gt;" style="opacity: 0.349">
					<path id="&lt;Path&gt;" class="shp145" d="M1888.89 2226.29C1768.62 2273.8 1632.56 2214.86 1585.03 2094.55C1570.1 2056.71 1565.7 2017.32 1570.44 1979.6C1573.06 1996.71 1577.59 2013.77 1584.22 2030.57C1631.74 2150.89 1767.79 2209.89 1888.1 2162.37C1970.58 2129.77 2024.22 2055.52 2034.44 1973.35C2050.58 2078.9 1992.44 2185.38 1888.89 2226.29Z" />
				</g>
				<g id="&lt;Group&gt;">
					<path id="&lt;Compound Path&gt;" fill-rule="evenodd" class="shp145" d="M1802.8 2261.76C1768.61 2261.76 1734.47 2254.74 1702.15 2240.72C1640.12 2213.82 1592.27 2164.38 1567.43 2101.49C1542.59 2038.6 1543.72 1969.8 1570.62 1907.77C1597.52 1845.74 1646.97 1797.89 1709.86 1773.05C1772.74 1748.21 1841.54 1749.34 1903.57 1776.24C1965.61 1803.14 2013.45 1852.59 2038.29 1915.48C2063.14 1978.36 2062 2047.16 2035.1 2109.19C2008.2 2171.23 1958.76 2219.07 1895.87 2243.91C1865.74 2255.82 1834.25 2261.76 1802.8 2261.76ZM1802.91 1793.1C1776.17 1793.1 1749.39 1798.15 1723.77 1808.27C1670.29 1829.39 1628.24 1870.08 1605.36 1922.84C1582.49 1975.59 1581.52 2034.1 1602.65 2087.58C1623.78 2141.05 1664.46 2183.11 1717.22 2205.98C1769.98 2228.86 1828.48 2229.82 1881.96 2208.69C1935.44 2187.57 1977.49 2146.88 2000.36 2094.13C2023.24 2041.37 2024.2 1982.87 2003.08 1929.39C1981.95 1875.91 1941.26 1833.86 1888.51 1810.98C1861.03 1799.07 1831.99 1793.1 1802.91 1793.1Z" />
				</g>
				<g id="&lt;Group&gt;">
					<path id="&lt;Path&gt;" class="shp149" d="M1859.17 2143.44C1782.64 2173.67 1696.09 2136.14 1665.86 2059.61C1635.62 1983.08 1673.15 1896.53 1749.69 1866.29C1826.22 1836.06 1912.77 1873.59 1943.01 1950.12C1973.24 2026.65 1935.71 2113.21 1859.17 2143.44Z" />
				</g>
				<g id="&lt;Group&gt;" style="opacity: 0.302">
					<g id="&lt;Group&gt;">
						<path id="&lt;Path&gt;" class="shp144" d="M1859.17 2143.46C1782.63 2173.7 1696.1 2136.15 1665.86 2059.61C1659.3 2043.05 1655.92 2025.97 1655.48 2009.13C1656.03 2010.69 1656.61 2012.23 1657.22 2013.82C1687.46 2090.36 1773.99 2127.91 1850.53 2097.67C1910.51 2073.99 1946.52 2015.75 1944.77 1954.84C1971.7 2030.17 1934.13 2113.84 1859.17 2143.46Z" />
					</g>
				</g>
				<g id="&lt;Group&gt;" style="opacity: 0.349">
					<path id="&lt;Path&gt;" class="shp145" d="M1955.04 2012.56C1954.2 2010.15 1953.35 2007.74 1952.39 2005.32C1922.15 1928.78 1835.62 1891.23 1759.08 1921.47C1701.47 1944.21 1665.93 1998.9 1664.83 2057.16C1639.66 1982.46 1677.21 1900.36 1751.34 1871.08C1827.84 1840.86 1914.4 1878.35 1944.63 1954.89C1952.09 1973.84 1955.47 1993.4 1955.04 2012.56Z" />
				</g>
				<g id="&lt;Group&gt;">
					<path id="&lt;Compound Path&gt;" fill-rule="evenodd" class="shp145" d="M1804.39 2172.89C1781.71 2172.89 1759.06 2168.23 1737.62 2158.93C1696.47 2141.09 1664.73 2108.28 1648.25 2066.57C1614.23 1980.45 1656.61 1882.71 1742.73 1848.68C1828.85 1814.66 1926.6 1857.04 1960.62 1943.17C1994.64 2029.29 1952.25 2127.03 1866.13 2161.05C1846.14 2168.95 1825.25 2172.89 1804.39 2172.89ZM1804.28 1874.8C1788.4 1874.8 1772.28 1877.72 1756.64 1883.9C1689.94 1910.25 1657.12 1985.95 1683.47 2052.65C1696.23 2084.96 1720.81 2110.37 1752.69 2124.19C1784.56 2138.02 1819.91 2138.6 1852.22 2125.83C1918.92 2099.48 1951.74 2023.78 1925.4 1957.08C1905.22 1906.02 1856.12 1874.8 1804.28 1874.8Z" />
				</g>
				<g id="&lt;Group&gt;" style="opacity: 0.2">
					<path id="&lt;Path&gt;" class="shp144" d="M2290.68 1685.41C2289.55 1649.84 2215.65 1621.97 2173.84 1622.29C2130.54 1622.63 2104.48 1630.09 2104.3 1651.06C2104.03 1680.33 2137.76 1690.65 2177.86 1692.17C2206.21 1693.24 2292.08 1729.31 2290.68 1685.41Z" />
				</g>
				<g id="&lt;Group&gt;" style="opacity: 0.2">
					<path id="&lt;Path&gt;" class="shp144" d="M2399.22 1730.35C2396.89 1699.52 2359.62 1670.8 2339.33 1668.47C2318.32 1666.06 2306.04 1670.88 2307 1689C2308.33 1714.3 2325.22 1725.32 2344.77 1729.14C2358.59 1731.84 2402.08 1768.4 2399.22 1730.35Z" />
				</g>
				<g id="&lt;Group&gt;">
					<g id="&lt;Group&gt;" style="opacity: 0.349">
						<path id="&lt;Path&gt;" class="shp145" d="M986.05 2563.38C1226.47 2645.08 1520.55 2603.03 1868.28 2437.22C2397.98 2184.6 2525.01 1796.78 2549.64 1696.74C2552.15 1698.41 2554.35 1699.91 2556.24 1701.23C2548.56 1695.89 2535.81 1687.44 2518.1 1677.14C2446.18 1840.59 2274.98 2103.56 1880.66 2291.61C1634.37 2409.05 1423.97 2443.72 1270.49 2447.59C1074.46 2452.55 898.21 2326.75 842.69 2138.68C842.38 2137.64 842.08 2136.6 841.77 2135.57C839.61 2128.1 837.59 2120.58 835.67 2113.04C834.67 2109.92 833.62 2106.83 832.69 2103.68C832.38 2102.64 832.08 2101.6 831.77 2100.57C831.45 2099.46 831.17 2098.33 830.85 2097.22C831.09 2096.87 831.31 2096.55 831.55 2096.2C831.55 2096.2 831.55 2096.2 831.55 2096.2C822.01 2110.11 815.07 2121.12 810.73 2129.24C811.94 2185.54 819.7 2241.07 833.57 2294.85C864.35 2393.53 916 2485.29 986.05 2563.38Z" />
					</g>
				</g>
				<g id="&lt;Group&gt;">
					<path id="&lt;Path&gt;" class="shp0" d="M960.47 2434.82C888.89 2463.08 806.66 2462.8 713.79 2433.99C713.97 2433.66 714.24 2433.21 714.59 2432.65C722.69 2418.9 792.45 2304.65 893.26 2264.77C990.01 2226.52 1095.39 2265.78 1114.16 2273.43C1115.44 2273.95 1116.42 2274.37 1117.09 2274.67C1083.79 2353.39 1031.58 2406.77 960.47 2434.82Z" />
				</g>
				<g id="&lt;Group&gt;" style="opacity: 0.6">
					<g id="&lt;Group&gt;">
						<path id="&lt;Path&gt;" class="shp144" d="M1122.11 2279.65C1120.07 2284.45 1117 2290.66 1112.9 2298.27C1076.99 2285.85 988.12 2262 905.5 2294.67C824.43 2326.73 763.44 2406.9 738.43 2444.17C730.15 2442.21 723.6 2440.48 718.77 2438.99C718.97 2438.67 719.24 2438.21 719.58 2437.63C727.69 2423.91 797.46 2309.66 898.27 2269.78C995.02 2231.52 1100.37 2270.78 1119.14 2278.43C1120.45 2278.96 1121.44 2279.37 1122.11 2279.65Z" />
					</g>
				</g>
				<g id="&lt;Group&gt;" style="opacity: 0.349">
					<path id="&lt;Path&gt;" class="shp145" d="M960.47 2434.82C888.89 2463.08 806.66 2462.8 713.79 2433.99C713.97 2433.66 714.24 2433.21 714.59 2432.65L1114.16 2273.43C1115.44 2273.95 1116.42 2274.37 1117.09 2274.67C1083.79 2353.39 1031.58 2406.77 960.47 2434.82Z" />
				</g>
				<g id="&lt;Group&gt;">
					<path id="&lt;Compound Path&gt;" fill-rule="evenodd" class="shp145" d="M849.91 2472.47C775.16 2472.47 712.11 2453.29 708.17 2452.07L685.68 2445.09L697.33 2424.62C700.41 2419.21 774.06 2291.55 886.32 2247.17C999.06 2202.6 1119.69 2255.11 1124.77 2257.37L1141.76 2264.92L1134.52 2282.04C1132.36 2287.16 1080.19 2407.94 967.41 2452.45C929.42 2467.45 888.13 2472.47 849.91 2472.47ZM743.8 2422.11C787.04 2431.79 879.46 2446.46 953.51 2417.23C1027.61 2387.98 1072.85 2318.07 1090.77 2285.09C1055.08 2273.3 974.07 2253.19 900.24 2282.39C826.03 2311.73 768.71 2385.52 743.8 2422.11ZM713.78 2433.99L713.83 2433.99L713.78 2433.99Z" />
				</g>
				<g id="&lt;Group&gt;" style="opacity: 0.251">
					<path id="&lt;Path&gt;" class="shp145" d="M1494.04 2048.56C1508.95 2069.95 1611.94 2243.72 1529.06 2312.78C1456.5 2373.27 1322.59 2363.33 1252.02 2268.23C1205.39 2205.33 1195.93 2132.81 1198.58 2077.34C1201.7 2012.54 1213.3 1950.72 1180.97 1902.2C1163.74 1876.26 1135.34 1853.21 1102.77 1827.6C1110.25 1822.39 1117.92 1817.14 1125.73 1811.93C1210.65 1755.23 1315.02 1698.95 1441.87 1650.95C1466.63 1662.88 1490.34 1678.21 1510.27 1697.91C1588.84 1775.87 1591.02 1932.35 1537.68 1995.78C1523.67 2012.44 1509.12 2030.03 1494.04 2048.56Z" />
				</g>
				<g id="&lt;Group&gt;">
					<path id="&lt;Path&gt;" class="shp144" d="M1541.37 2001.22C1556.28 2022.62 1659.28 2196.38 1576.4 2265.44C1503.83 2325.93 1369.92 2315.99 1299.35 2220.9C1252.73 2157.99 1243.26 2085.48 1245.91 2030C1249.03 1965.2 1260.63 1903.38 1228.3 1854.87C1191.52 1799.58 1048.01 1778.94 976.63 1697.1C934.55 1648.91 912.02 1561.39 915.85 1454.18C917.03 1421.62 920.63 1387.2 926.88 1351.51C953.38 1199.95 1027.51 1025.62 1164.02 871.26C1200.19 1015.92 1237.22 1152.51 1275.12 1281.03C1314.73 1415.42 1355.63 1538.06 1380.2 1567.07C1383.46 1570.96 1386.45 1573.13 1389.1 1573.51C1421.42 1578.01 1453.14 1587.05 1483.2 1600.78C1510.08 1613.08 1536.07 1629.27 1557.61 1650.57C1636.18 1728.53 1638.36 1885.02 1585.01 1948.45C1571 1965.11 1556.45 1982.7 1541.37 2001.22Z" />
				</g>
				<g id="&lt;Group&gt;" style="opacity: 0.251">
					<path id="&lt;Path&gt;" class="shp145" d="M1602.86 2225.82C1597.98 2241.02 1589.56 2254.51 1576.4 2265.44C1503.83 2325.93 1369.92 2315.99 1299.35 2220.9C1252.73 2158.04 1243.26 2085.48 1245.91 2030C1249.03 1965.2 1260.58 1903.38 1228.3 1854.91C1191.52 1799.63 1048.01 1778.94 976.58 1697.15C934.55 1648.96 912.02 1561.35 915.85 1454.18C915.85 1453.71 915.9 1453.19 915.9 1452.72C916.04 1449.12 916.23 1445.52 916.42 1441.88C916.61 1438.56 916.8 1435.2 917.03 1431.79C917.13 1430.28 917.22 1428.72 917.36 1427.15C917.98 1419.16 918.69 1411.06 919.59 1402.87C920.01 1398.99 920.49 1395.06 920.96 1391.09C921.29 1388.34 921.67 1385.55 922.05 1382.76C922.33 1380.44 922.67 1378.12 923 1375.8C923.52 1372.15 924.09 1368.51 924.65 1364.82C925.32 1360.65 926.03 1356.44 926.74 1352.23C926.78 1351.99 926.83 1351.75 926.88 1351.51C929.69 1348.36 932.08 1345.9 934.07 1344.13C943.6 1348.45 958.54 1353.25 978.9 1358.52C1027.42 1371.11 1116.92 1387.39 1255.19 1387.2L1253.01 1315.49C1252.54 1300.2 1261.67 1286.71 1275.12 1281.03C1278.29 1279.66 1281.74 1278.76 1285.39 1278.38L1371.3 1269.2L1495.5 1569.91L1380.2 1567.07L1293.48 1564.94C1274.83 1563.76 1260.11 1548.57 1259.54 1529.87L1258.45 1493.85C1182.58 1510.84 1057 1515.29 975.73 1488.5C981.78 1563.38 1002.66 1623.88 1035.04 1660.99C1106.42 1742.83 1213.44 1698.9 1285.86 1783.34C1331.11 1836.17 1307.44 1929.09 1304.32 1993.89C1301.67 2049.36 1280.23 2130.73 1326.8 2193.59C1388.43 2276.71 1521.73 2269.32 1602.86 2225.82Z" />
				</g>
				<g id="&lt;Group&gt;" style="opacity: 0.251">
					<path id="&lt;Path&gt;" class="shp145" d="M1840.95 871.64C1794.42 935.59 1733.12 988.13 1662.17 1024.2C1628.13 1041.48 1591.87 1055.01 1553.91 1064.2C1514.77 1073.71 1473.87 1078.59 1431.79 1078.3C1356.98 1077.79 1286.14 1060.91 1222.61 1031.08C1159.25 1001.33 1083.48 1029.71 1054.62 1093.48C1013.09 1185.24 988.72 1276.11 978.9 1358.52C958.54 1353.25 943.6 1348.45 934.07 1344.13C932.08 1345.9 929.69 1348.36 926.88 1351.51C953.38 1199.95 1027.51 1025.62 1164.02 871.26L1165.44 885.79C1177.53 869.29 1187.42 856.43 1195.12 847.22L1647.63 870.32C1648.8 886.22 1650.6 907.36 1653.03 933.74C1709.17 918.88 1777.19 898.15 1840.95 871.64Z" />
				</g>
				<g id="&lt;Group&gt;">
					<path id="&lt;Path&gt;" class="shp145" d="M1398.17 1568.5C1422.75 1568.18 1447.45 1572.16 1471.27 1579.38C1495.07 1586.64 1518.25 1596.84 1539.59 1611.06C1550.22 1618.17 1560.45 1626.13 1569.98 1635.02C1579.56 1644.1 1588.19 1654.27 1595.76 1664.95C1610.87 1686.45 1621.37 1710.38 1628.65 1734.85C1635.68 1759.41 1639.64 1784.61 1640.45 1809.91C1641.47 1835.2 1639.55 1860.66 1633.81 1885.76C1628.01 1910.73 1618.9 1935.92 1601.52 1958.05L1556.03 2013.17L1556.88 1990.38C1560.69 1995.96 1563.63 2000.86 1566.72 2006.03C1569.71 2011.15 1572.63 2016.28 1575.42 2021.45C1581.04 2031.8 1586.32 2042.29 1591.28 2052.96C1601.23 2074.29 1609.84 2096.37 1616.5 2119.43C1622.97 2142.52 1627.72 2166.69 1627.12 2192.3C1626.78 2205.05 1625.22 2218.19 1621 2231.13C1616.89 2244.04 1610.21 2256.64 1601.15 2267.29L1597.75 2271.28C1596.57 2272.56 1595.25 2273.7 1594.01 2274.91C1591.47 2277.19 1588.92 2279.92 1586.35 2281.62C1581.16 2285.37 1576.13 2289.42 1570.74 2292.82C1565.2 2295.95 1559.72 2299.23 1554.09 2302.16L1536.66 2309.65C1512.95 2318.3 1487.94 2322.21 1463.13 2322.05C1438.3 2321.88 1413.61 2317.63 1390.14 2309.64C1366.57 2301.82 1344.66 2289.29 1325.13 2274C1320.24 2270.16 1315.27 2266.41 1310.98 2261.89C1306.6 2257.49 1301.9 2253.37 1297.83 2248.69L1285.95 2234.34C1282.05 2229.52 1278.84 2224.4 1275.27 2219.43C1261.92 2199 1251.31 2176.85 1243.46 2153.89C1235.87 2130.86 1230.71 2107.1 1228.44 2083.18C1227.15 2071.23 1226.65 2059.23 1226.62 2047.26C1226.57 2041.27 1226.8 2035.29 1227.01 2029.31L1228.01 2011.97C1229.48 1989 1231.49 1966.64 1231.53 1945.09C1231.5 1923.63 1229.58 1902.85 1222.49 1884.91C1221.68 1882.63 1220.8 1880.39 1219.68 1878.28C1218.58 1876.17 1217.75 1873.9 1216.47 1871.9L1212.8 1865.78C1211.5 1864.01 1210.52 1862.46 1209.04 1860.83C1203.49 1854.36 1195.78 1848.21 1187.17 1842.64C1169.77 1831.5 1149.51 1822.17 1129.04 1812.85C1087.99 1794.23 1044.69 1775.92 1005.22 1747.85C985.61 1733.68 967.01 1717.23 952 1696.45C937.22 1675.98 926.93 1653.5 919.14 1630.71C911.39 1607.86 906.18 1584.55 902.47 1561.17C899.13 1537.75 897.26 1514.27 896.69 1490.83C895.83 1443.95 900.02 1397.35 907.69 1351.49C923.61 1259.84 953.87 1171.25 995.04 1088.32C1015.99 1047.09 1037.45 1005.84 1063.91 967.74C1090.56 929.91 1120.77 894.15 1159.3 867.08C1162.23 865.02 1166.28 865.72 1168.34 868.65C1169.78 870.71 1169.87 873.3 1168.79 875.38L1168.76 875.44C1147.22 916.62 1121.63 952.86 1097.4 990.37C1072.99 1027.6 1048.47 1065.01 1028.95 1105.17C989.29 1185.03 960.22 1270.31 945.02 1357.87C937.7 1401.65 933.74 1445.99 934.55 1490.03C935.09 1512.04 936.84 1533.92 939.92 1555.52C943.33 1577.02 948.11 1598.21 954.96 1618.42C961.81 1638.58 970.8 1657.86 982.7 1674.28C994.33 1690.48 1010.09 1704.7 1027.28 1717.07C1062.08 1741.91 1103.06 1759.58 1144.67 1778.36C1165.52 1787.9 1186.77 1797.48 1207.73 1810.85C1218.15 1817.64 1228.61 1825.55 1237.91 1836.32C1240.23 1838.92 1242.43 1842.11 1244.43 1844.95L1249.54 1853.45C1251.27 1856.27 1252.51 1859.33 1254 1862.27C1255.51 1865.21 1256.72 1868.25 1257.84 1871.32C1262.57 1883.52 1265.56 1896.15 1267.15 1908.53C1268.8 1920.91 1269.5 1933.2 1269.4 1945.13C1269.33 1969.06 1267.21 1992.02 1265.8 2014.4L1264.83 2031.1C1264.65 2036.48 1264.44 2041.86 1264.49 2047.23C1264.52 2057.98 1264.96 2068.73 1266.11 2079.38C1268.13 2100.72 1272.73 2121.66 1279.34 2141.79C1293.11 2181.65 1315.99 2219.29 1348.57 2244.26C1364.74 2256.9 1382.86 2267.38 1402.52 2273.86C1422.08 2280.49 1442.71 2284.04 1463.31 2284.18C1483.9 2284.33 1504.5 2281.07 1523.54 2274.13L1537.43 2268.15C1541.86 2265.81 1546.12 2263.22 1550.51 2260.81C1554.71 2258.15 1558.52 2254.98 1562.58 2252.14C1564.78 2250.73 1566.01 2249.12 1567.73 2247.64C1568.52 2246.88 1569.39 2246.18 1570.13 2245.37L1572.23 2242.85C1583.61 2229.64 1588.98 2211.32 1589.26 2191.34C1589.79 2171.42 1585.9 2150.4 1580.08 2129.82C1574.12 2109.2 1566.21 2088.79 1556.95 2068.92C1552.32 2058.99 1547.38 2049.17 1542.15 2039.54C1539.55 2034.71 1536.84 2029.96 1534.1 2025.27C1531.38 2020.67 1528.42 2015.85 1525.82 2012.05L1517.69 2000.13L1526.67 1989.25L1571.92 1934.44C1584.05 1919.1 1592.14 1898.66 1596.76 1877.48C1605.95 1834.77 1602.91 1788.39 1589.9 1746.53C1583.28 1725.62 1574.29 1705.59 1562.33 1687.98C1556.4 1679.11 1549.69 1671.02 1542.35 1663.42C1534.87 1655.74 1526.62 1648.63 1517.8 1642.11C1500.21 1629.04 1480.74 1617.52 1460.32 1607.47C1439.88 1597.43 1418.46 1588.93 1396.15 1580.96L1396.1 1580.94C1392.77 1579.75 1391.03 1576.09 1392.22 1572.75C1393.15 1570.17 1395.58 1568.54 1398.17 1568.5Z" />
				</g>
				<g id="&lt;Group&gt;">
					<path id="&lt;Path&gt;" class="shp145" d="M1247.62 1919.86C1240.62 1919.86 1234.53 1914.69 1233.57 1907.56C1211.48 1744.16 1308.24 1666.91 1350.87 1641.28C1421.54 1598.8 1506.7 1594.83 1557.97 1631.64C1564.34 1636.21 1565.8 1645.08 1561.23 1651.46C1556.66 1657.82 1547.78 1659.28 1541.41 1654.71C1499.75 1624.8 1425.78 1629.39 1365.5 1665.63C1327.69 1688.36 1241.88 1757.07 1261.71 1903.76C1262.76 1911.53 1257.31 1918.68 1249.54 1919.73C1248.9 1919.82 1248.25 1919.86 1247.62 1919.86Z" />
				</g>
				<g id="&lt;Group&gt;">
					<path id="&lt;Path&gt;" class="shp145" d="M1567.42 1998.84C1565.42 2000.74 1564.07 2001.88 1562.41 2003.29C1560.83 2004.64 1559.2 2005.86 1557.58 2007.1C1554.36 2009.6 1551 2011.83 1547.61 2014.02C1540.85 2018.42 1533.66 2022.12 1526.34 2025.56C1511.6 2032.19 1495.74 2036.9 1479.33 2038.75C1463 2040.53 1445.99 2039.84 1430.4 2034.44C1414.84 2029.24 1400.94 2020.02 1391.22 2007.73C1406.74 2010.43 1420.61 2012.51 1434.19 2011.84C1440.9 2011.77 1447.48 2011.09 1453.94 2010.12C1460.4 2009.21 1466.79 2007.89 1473.03 2005.92C1485.54 2002.22 1497.66 1997 1509.33 1990.69C1515.24 1987.68 1520.91 1984.18 1526.61 1980.76L1534.96 1975.38L1542.63 1970.21L1543.8 1969.43C1552.47 1963.59 1564.23 1965.88 1570.07 1974.55C1575.31 1982.33 1574 1992.59 1567.42 1998.84Z" />
				</g>
				<g id="&lt;Group&gt;">
					<path id="&lt;Path&gt;" class="shp144" d="M1929.81 646.27L1929.81 646.27C1924.18 646.63 1919.33 642.36 1918.97 636.73L1900.2 343.17C1899.84 337.55 1904.12 332.69 1909.74 332.33L1909.74 332.33C1968.79 328.56 2019.72 373.37 2023.5 432.41L2029.9 532.52C2033.67 591.57 1988.86 642.5 1929.81 646.27Z" />
					<path id="&lt;Compound Path&gt;" fill-rule="evenodd" class="shp145" d="M1929.16 648.32C1922.76 648.32 1917.36 643.33 1916.94 636.86L1898.18 343.3C1897.75 336.57 1902.88 330.74 1909.61 330.31C1969.72 326.5 2021.68 372.21 2025.52 432.29L2031.92 532.39C2033.78 561.49 2024.2 589.57 2004.94 611.47C1985.68 633.36 1959.04 646.44 1929.94 648.3C1929.68 648.31 1929.42 648.32 1929.16 648.32ZM1916.73 334.14C1914.45 334.14 1912.17 334.21 1909.87 334.36C1907.69 334.5 1905.7 335.48 1904.25 337.12C1902.81 338.76 1902.09 340.86 1902.23 343.04L1921 636.6C1921.28 641.1 1925.2 644.6 1929.68 644.25C1957.7 642.46 1983.34 629.86 2001.89 608.78C2020.44 587.71 2029.66 560.67 2027.87 532.65L2021.47 432.54C2019.68 404.53 2007.09 378.88 1986.01 360.34C1966.66 343.31 1942.27 334.14 1916.73 334.14ZM1929.81 646.27L1929.86 646.27L1929.81 646.27Z" />
				</g>
				<g id="&lt;Group&gt;" style="opacity: 0.349">
					<path id="&lt;Path&gt;" class="shp145" d="M2026.9 485.58L2029.91 532.53C2033.67 591.56 1988.87 642.5 1929.81 646.29C1924.18 646.66 1919.33 642.36 1918.96 636.73L1913.95 558.69C1915.76 562.15 1919.47 564.38 1923.61 564.15L1930.57 563.68C1977.23 560.71 2015.03 528.26 2026.9 485.58Z" />
				</g>
				<g id="&lt;Group&gt;">
					<path id="&lt;Compound Path&gt;" fill-rule="evenodd" class="shp145" d="M1929.14 665.23C1913.92 665.23 1901.06 653.35 1900.07 637.94L1881.31 344.38C1880.29 328.34 1892.5 314.46 1908.54 313.44C1942.11 311.27 1974.57 322.35 1999.86 344.6C2025.14 366.84 2040.25 397.6 2042.39 431.21L2048.79 531.31C2050.94 564.92 2039.87 597.35 2017.63 622.63C1995.38 647.91 1964.63 663.02 1931.02 665.17C1931.02 665.17 1931.02 665.17 1931.02 665.17C1930.39 665.21 1929.76 665.23 1929.14 665.23ZM1919.68 351.09L1937.28 626.39C1981.47 619.17 2013.92 579.33 2011 533.73L2004.6 433.62C2003.1 410.11 1992.53 388.59 1974.84 373.03C1959.35 359.4 1940.03 351.77 1919.68 351.09ZM1929.81 646.27L1929.86 646.27L1929.81 646.27Z" />
				</g>
				<g id="&lt;Group&gt;">
					<path id="&lt;Path&gt;" class="shp144" d="M940.78 394.27L940.78 394.27C946.41 393.91 951.26 398.18 951.62 403.81L970.39 697.37C970.75 703 966.47 707.85 960.85 708.21L960.85 708.21C901.8 711.99 850.87 667.18 847.09 608.13L840.69 508.03C836.92 448.98 881.73 398.05 940.78 394.27Z" />
					<path id="&lt;Compound Path&gt;" fill-rule="evenodd" class="shp145" d="M953.86 710.47C927.32 710.47 902 700.94 881.9 683.25C860.01 663.99 846.93 637.36 845.07 608.26L838.67 508.15C836.81 479.06 846.39 450.97 865.65 429.08C884.91 407.19 911.55 394.11 940.65 392.25C947.46 391.9 953.21 396.95 953.65 403.68L972.41 697.24C972.62 700.5 971.54 703.65 969.38 706.11C967.23 708.56 964.24 710.03 960.98 710.24C958.6 710.39 956.22 710.47 953.86 710.47ZM940.9 396.3C912.89 398.09 887.25 410.68 868.7 431.76C850.15 452.84 840.93 479.88 842.72 507.9L849.12 608C850.91 636.02 863.5 661.66 884.58 680.21C905.66 698.75 932.72 708.01 960.72 706.19C962.9 706.05 964.89 705.07 966.34 703.43C967.78 701.78 968.5 699.68 968.36 697.5L949.59 403.94C949.31 399.44 945.42 395.99 940.9 396.3Z" />
				</g>
				<g id="&lt;Group&gt;" style="opacity: 0.349">
					<path id="&lt;Path&gt;" class="shp145" d="M965.2 615.93L970.4 697.37C970.77 703 966.46 707.85 960.84 708.22C929.84 710.18 901.06 698.79 880.17 678.94C861.32 661.02 848.9 636.18 847.1 608.15L844.41 565.97C863.53 601.9 902.53 625.3 945.82 622.54L956.53 621.85C960.44 621.59 963.63 619.22 965.2 615.93Z" />
				</g>
				<g id="&lt;Group&gt;">
					<path id="&lt;Compound Path&gt;" fill-rule="evenodd" class="shp145" d="M953.92 727.37C888.05 727.37 832.46 675.99 828.2 609.34L821.8 509.23C819.65 475.63 830.72 443.2 852.96 417.92C875.2 392.63 905.96 377.52 939.57 375.38C939.57 375.38 939.57 375.38 939.57 375.38C955.63 374.34 969.48 386.57 970.51 402.6L989.28 696.16C989.78 703.93 987.22 711.43 982.08 717.27C976.93 723.12 969.82 726.61 962.05 727.11C959.33 727.28 956.62 727.37 953.92 727.37ZM933.31 414.15C889.12 421.38 856.67 461.22 859.59 506.82L865.99 606.92C867.49 630.43 878.06 651.95 895.75 667.51C911.23 681.14 930.56 688.77 950.91 689.45L933.31 414.15Z" />
				</g>
				<g id="&lt;Group&gt;">
					<path id="&lt;Path&gt;" class="shp144" d="M1936.61 523.85C1934.63 800.69 1708.61 1023.5 1431.77 1021.52C1154.94 1019.54 932.12 793.52 934.1 516.68C936.08 239.85 1162.1 17.03 1438.94 19.01C1715.78 20.99 1938.59 247.02 1936.61 523.85Z" />
					<path id="&lt;Compound Path&gt;" fill-rule="evenodd" class="shp145" d="M1435.41 1023.57C1434.18 1023.57 1432.99 1023.56 1431.76 1023.55C1154.24 1021.57 930.09 794.18 932.07 516.67C934.05 240.39 1159.47 16.97 1435.3 16.97C1436.53 16.97 1437.72 16.98 1438.95 16.99C1573.39 17.94 1699.4 71.2 1793.78 166.94C1888.15 262.67 1939.6 389.43 1938.64 523.87C1936.66 800.14 1711.24 1023.57 1435.41 1023.57ZM1435.25 21.03C1303.27 21.03 1178.97 71.98 1084.87 164.74C989.91 258.35 937.08 383.35 936.13 516.7C935.18 650.05 986.21 775.79 1079.83 870.75C1173.44 965.72 1298.44 1018.54 1431.79 1019.49C1565.01 1020.42 1690.87 969.42 1785.84 875.8C1880.8 782.18 1933.63 657.19 1934.58 523.84C1935.53 390.49 1884.5 264.75 1790.89 169.79C1697.27 74.82 1572.27 21.99 1438.92 21.04C1437.7 21.04 1436.47 21.03 1435.25 21.03Z" />
				</g>
				<g id="&lt;Group&gt;" style="opacity: 0.349">
					<path id="&lt;Path&gt;" class="shp145" d="M1932.3 454.43C1935.33 477.12 1936.78 500.29 1936.62 523.86C1934.6 800.69 1708.59 1023.5 1431.76 1021.54C1154.94 1019.52 932.13 793.51 934.08 516.69C934.13 508.72 934.37 500.76 934.81 492.92C966.86 737.16 1174.88 926.52 1428.18 928.34C1697.04 930.25 1917.94 720.14 1932.3 454.43Z" />
				</g>
				<g id="&lt;Group&gt;">
					<path id="&lt;Compound Path&gt;" fill-rule="evenodd" class="shp145" d="M1435.46 1040.47C1434.18 1040.47 1432.92 1040.47 1431.64 1040.46C1292.69 1039.46 1162.45 984.42 1064.9 885.47C967.35 786.51 914.17 655.5 915.17 516.55C916.16 377.6 971.21 247.36 1070.16 149.81C1169.11 52.26 1300.22 -0.97 1439.07 0.08C1578.02 1.07 1708.27 56.12 1805.81 155.07C1903.36 254.02 1956.54 385.04 1955.54 523.99C1954.55 662.93 1899.51 793.18 1800.55 890.73C1702.51 987.38 1572.98 1040.47 1435.46 1040.47ZM1435.26 37.93C1307.74 37.93 1187.65 87.16 1096.74 176.78C1004.99 267.22 953.95 387.99 953.03 516.82C952.11 645.65 1001.42 767.13 1091.86 858.88C1182.31 950.63 1303.07 1001.67 1431.91 1002.59C1560.9 1003.35 1682.22 954.21 1773.97 863.76C1865.72 773.31 1916.76 652.55 1917.68 523.72C1918.6 394.88 1869.29 273.4 1778.85 181.65C1688.4 89.9 1567.64 38.87 1438.81 37.95C1437.62 37.94 1436.44 37.93 1435.26 37.93Z" />
				</g>
				<g id="&lt;Group&gt;">
					<path id="&lt;Path&gt;" class="shp145" d="M1934.92 536.72C1935.7 634.8 1904.58 726.12 1850.73 801.9C1810.35 858.71 1643.31 958.91 1436.09 962.42C1243.96 965.67 1068.32 864.62 1027.04 808.45C971.99 733.54 939.42 642.73 938.64 544.64C936.58 285.07 1158.73 175.69 1433.86 173.5C1708.98 171.32 1932.85 277.15 1934.92 536.72Z" />
				</g>
				<g id="&lt;Group&gt;">
					<path id="&lt;Compound Path&gt;" fill-rule="evenodd" class="shp145" d="M1426.8 973.79C1232.19 973.8 1060.41 872.93 1017.94 815.14C959.45 735.55 928.12 642.04 927.35 544.73C926.34 418.02 976.36 319.92 1076.02 253.17C1163.11 194.83 1286.82 163.38 1433.77 162.21C1580.77 161.01 1704.91 190.52 1792.92 247.47C1893.63 312.63 1945.2 409.91 1946.21 536.63C1946.99 633.94 1917.15 727.93 1859.93 808.44C1820.28 864.24 1655.3 970 1436.29 973.71C1433.12 973.76 1429.95 973.79 1426.8 973.79ZM1441.35 184.77C1438.83 184.77 1436.37 184.78 1433.95 184.8C1287.57 185.96 947.38 223.35 949.94 544.55C950.68 637.08 980.48 726.02 1036.14 801.76C1075.07 854.73 1242.45 951.19 1426.99 951.2C1429.97 951.2 1432.92 951.17 1435.9 951.12C1644.27 947.59 1805.34 846.26 1841.52 795.36C1895.97 718.74 1924.36 629.34 1923.62 536.81C1921.11 220.92 1591.49 184.77 1441.35 184.77Z" />
				</g>
				<g id="&lt;Group&gt;" style="opacity: 0.702">
					<path id="&lt;Path&gt;" class="shp144" d="M1709.4 491.78C1701.05 540.06 1722.64 584.1 1757.62 590.15C1792.6 596.2 1827.73 561.97 1836.08 513.7C1844.43 465.42 1822.84 421.38 1787.86 415.33C1752.88 409.28 1717.75 443.51 1709.4 491.78Z" />
				</g>
				<g id="&lt;Group&gt;" style="opacity: 0.702">
					<path id="&lt;Path&gt;" class="shp144" d="M1662.12 668.43C1655.26 689.85 1664.6 711.98 1682.98 717.86C1701.36 723.75 1721.81 711.16 1728.67 689.74C1735.53 668.33 1726.19 646.19 1707.81 640.31C1689.43 634.42 1668.98 647.01 1662.12 668.43Z" />
				</g>
				<g id="&lt;Group&gt;" style="opacity: 0.349">
					<path id="&lt;Path&gt;" class="shp150" d="M1836.1 295.33C1897.46 352.96 1934.07 432.45 1934.91 536.7C1935.69 634.81 1904.56 726.12 1850.74 801.9C1810.35 858.71 1643.3 958.9 1436.08 962.43C1362.92 963.69 1292.17 949.8 1230.28 929C1484.91 919.23 1688.38 796.27 1738.44 725.8C1806.8 629.63 1846.29 513.71 1845.28 389.25C1845.04 355.98 1841.85 324.7 1836.1 295.33Z" />
				</g>
				<g id="&lt;Group&gt;">
					<path id="&lt;Compound Path&gt;" fill-rule="evenodd" class="shp145" d="M989.35 334.63L959.63 311.18L973.59 322.35L958.72 312.42C1046.73 180.66 1218.68 104.12 1430.49 102.43C1640.98 100.84 1813.74 172.01 1905.28 297.92C1910.58 304.88 1910.52 314.83 1904.61 321.73C1897.8 329.67 1885.88 330.61 1877.94 323.81C1876.82 322.84 1875.74 321.69 1874.87 320.49C1790.67 204.4 1628.77 138.63 1430.8 140.3C1231.73 141.88 1071.14 212.29 990.21 333.45C989.94 333.86 989.65 334.25 989.35 334.63ZM974.41 323.01L974.46 323.01L974.41 323.01Z" />
				</g>
				<g id="&lt;Group&gt;" style="opacity: 0.702">
					<path id="&lt;Path&gt;" class="shp144" d="M1051.74 698.17C996.79 527.88 1015.04 408.36 1106.5 339.6C1243.69 236.46 1442.24 235.29 1437.7 248.07C1291.45 284.71 1190.11 361.18 1133.7 477.48C1090.2 567.16 1062.88 640.73 1051.74 698.17Z" />
				</g>
				<g id="&lt;Group&gt;">
					<path id="&lt;Path&gt;" class="shp144" d="M1751.65 1254.92L1765.21 1359.59L1775.78 1441C1778.64 1463.12 1763.98 1483.69 1742.08 1488.14C1728 1491.02 1710.5 1494.38 1690.37 1497.86C1618.72 1510.22 1513.31 1524.04 1407.34 1522.42C1384.57 1522.06 1366.17 1503.73 1365.57 1480.94L1360.1 1264.83C1359.49 1240.49 1379.36 1220.6 1403.7 1221.22C1477.3 1223.11 1623.98 1225.54 1705.7 1218.02C1728.44 1215.91 1748.73 1232.25 1751.65 1254.92Z" />
				</g>
				<g id="&lt;Group&gt;">
					<path id="&lt;Path&gt;" class="shp144" d="M1400.44 1221.27L1314.52 1230.43C1295.69 1232.44 1281.58 1248.63 1282.16 1267.56L1288.7 1481.96C1289.27 1500.66 1303.98 1515.84 1322.64 1517.01L1402.03 1521.98" />
				</g>
				<g id="&lt;Group&gt;" style="opacity: 0.251">
					<path id="&lt;Path&gt;" class="shp145" d="M1400.44 1221.27L1314.52 1230.43C1295.69 1232.44 1281.58 1248.63 1282.16 1267.56L1288.7 1481.96C1289.27 1500.66 1303.98 1515.84 1322.64 1517.01L1402.03 1521.98" />
				</g>
				<g id="&lt;Group&gt;">
					<path id="&lt;Compound Path&gt;" fill-rule="evenodd" class="shp145" d="M1424.79 1539.28C1418.89 1539.28 1412.98 1539.24 1407.07 1539.15C1375.24 1538.66 1349.67 1513.28 1348.87 1481.37L1343.4 1265.24C1342.98 1248.85 1349.14 1233.43 1360.74 1221.83C1372.33 1210.24 1387.74 1204.14 1404.13 1204.51C1481.89 1206.49 1624.27 1208.72 1704.17 1201.36C1735.95 1198.45 1764.11 1221.02 1768.23 1252.76L1792.35 1438.84C1796.33 1469.5 1775.72 1498.35 1745.43 1504.52C1680.42 1517.76 1554.67 1539.28 1424.79 1539.28ZM1402.6 1237.92C1395.71 1237.92 1389.27 1240.58 1384.38 1245.47C1379.32 1250.53 1376.63 1257.25 1376.82 1264.4L1382.28 1480.53C1382.64 1494.44 1393.75 1505.51 1407.59 1505.72C1540.44 1507.71 1672.12 1485.33 1738.76 1471.77C1751.96 1469.08 1760.94 1456.5 1759.2 1443.13L1735.08 1257.06C1733.28 1243.22 1721.1 1233.39 1707.23 1234.65C1625.63 1242.16 1481.77 1239.93 1403.28 1237.93C1403.05 1237.92 1402.82 1237.92 1402.6 1237.92Z" />
				</g>
				<g id="&lt;Group&gt;">
					<path id="&lt;Path&gt;" class="shp145" d="M1402.04 1538.7C1401.69 1538.7 1401.34 1538.69 1400.98 1538.66L1321.6 1533.69C1294.16 1531.98 1272.83 1509.96 1272 1482.47L1265.45 1268.07C1264.61 1240.56 1285.39 1216.73 1312.75 1213.82L1398.67 1204.65C1407.88 1203.63 1416.08 1210.32 1417.06 1219.5C1418.04 1228.67 1411.39 1236.91 1402.21 1237.89L1316.3 1247.05C1306.21 1248.13 1298.56 1256.91 1298.87 1267.05L1305.41 1481.45C1305.72 1491.58 1313.58 1499.7 1323.69 1500.33L1403.07 1505.3C1412.29 1505.88 1419.29 1513.81 1418.71 1523.03C1418.15 1531.89 1410.8 1538.7 1402.04 1538.7Z" />
				</g>
				<g id="&lt;Group&gt;">
					<path id="&lt;Path&gt;" class="shp145" d="M1583.24 1531.36C1574.45 1531.36 1567.09 1524.5 1566.57 1515.62L1560.18 1406.11L1504.73 1368.71C1500.46 1365.83 1497.76 1361.14 1497.4 1356L1488.33 1224.11C1487.7 1214.91 1494.65 1206.93 1503.86 1206.29C1513.05 1205.66 1521.05 1212.61 1521.68 1221.82L1530.19 1345.56L1585.73 1383.03C1590.05 1385.94 1592.77 1390.7 1593.07 1395.91L1599.94 1513.67C1600.48 1522.89 1593.44 1530.79 1584.23 1531.33C1583.9 1531.35 1583.57 1531.36 1583.24 1531.36Z" />
				</g>
				<g id="&lt;Group&gt;">
					<path id="&lt;Path&gt;" class="shp151" d="M1739.16 1354.88C1739.62 1359.3 1738.59 1379.68 1736.09 1416.02C1724.78 1417.19 1712.19 1418.5 1698.31 1419.95C1672.29 1422.65 1648.4 1397.91 1644.94 1364.68C1641.49 1331.45 1659.77 1302.32 1685.79 1299.61C1697.5 1298.4 1710.09 1297.09 1723.58 1295.68C1733.21 1327.95 1738.41 1347.68 1739.16 1354.88Z" />
				</g>
				<g id="&lt;Group&gt;">
					<path id="&lt;Path&gt;" class="shp144" d="M1739.15 1354.88C1739.62 1359.3 1738.6 1379.68 1736.11 1416.02C1735.82 1416.05 1735.41 1416.09 1734.86 1416.14C1735.84 1400.41 1736.82 1381.73 1736.43 1378.03C1735.7 1370.82 1730.51 1351.09 1720.87 1318.84C1707.38 1320.24 1694.79 1321.55 1683.09 1322.77C1664.91 1324.64 1650.48 1339.47 1644.6 1359.56C1643.38 1328.5 1661.12 1302.17 1685.8 1299.62C1697.5 1298.4 1710.09 1297.09 1723.59 1295.69C1733.23 1327.95 1738.41 1347.68 1739.15 1354.88Z" />
				</g>
				<g id="&lt;Group&gt;">
					<path id="&lt;Compound Path&gt;" fill-rule="evenodd" class="shp145" d="M1694.47 1434.35C1662.83 1434.35 1634.86 1404.96 1630.82 1366.15C1626.56 1325.18 1650.56 1289 1684.32 1285.49L1710.7 1282.75C1724.2 1281.33 1736.68 1289.77 1740.45 1302.77C1752.25 1343.51 1753.03 1350.96 1753.28 1353.41L1753.28 1353.41C1753.49 1355.38 1753.96 1359.99 1751.03 1405.36C1750.15 1418.99 1739.63 1429.92 1726.02 1431.34L1699.78 1434.07C1698 1434.26 1696.23 1434.35 1694.47 1434.35ZM1713.28 1311.03L1687.26 1313.74C1669.38 1315.6 1656.47 1338.25 1659.06 1363.21C1661.66 1388.17 1678.99 1407.62 1696.84 1405.83L1722.71 1403.13C1724.67 1372.88 1725.18 1359 1725.02 1356.25C1724.6 1352.55 1721.31 1338.78 1713.28 1311.03Z" />
				</g>
				<g id="&lt;Group&gt;">
					<path id="&lt;Path&gt;" class="shp151" d="M1776.94 1350.95C1780.4 1384.18 1762.11 1413.31 1736.09 1416.02C1710.07 1418.72 1686.18 1393.98 1682.73 1360.75C1679.27 1327.52 1697.56 1298.39 1723.58 1295.68C1749.59 1292.98 1773.48 1317.72 1776.94 1350.95Z" />
				</g>
				<g id="&lt;Group&gt;">
					<path id="&lt;Path&gt;" class="shp144" d="M1776.93 1350.95C1777.34 1354.97 1777.45 1358.93 1777.23 1362.79C1770.05 1335.68 1748.9 1316.92 1726.05 1319.28C1703.16 1321.69 1686.27 1344.47 1684.89 1372.53C1683.89 1368.74 1683.13 1364.79 1682.72 1360.73C1679.26 1327.51 1697.57 1298.38 1723.59 1295.69C1749.59 1292.97 1773.47 1317.73 1776.93 1350.95Z" />
				</g>
				<g id="&lt;Group&gt;">
					<path id="&lt;Compound Path&gt;" fill-rule="evenodd" class="shp145" d="M1732.1 1430.43C1717.01 1430.43 1702.5 1423.91 1690.73 1411.72C1678.46 1399.01 1670.6 1381.43 1668.6 1362.22C1666.6 1343.01 1670.68 1324.18 1680.07 1309.22C1690.16 1293.15 1705.09 1283.33 1722.11 1281.56C1739.13 1279.78 1755.76 1286.33 1768.93 1299.98C1781.21 1312.69 1789.07 1330.27 1791.06 1349.49L1791.06 1349.48C1793.06 1368.69 1788.99 1387.52 1779.59 1402.48C1769.51 1418.55 1754.58 1428.37 1737.56 1430.14C1735.73 1430.33 1733.91 1430.43 1732.1 1430.43ZM1727.44 1309.68C1726.64 1309.68 1725.84 1309.72 1725.05 1309.81C1716.9 1310.65 1709.47 1315.81 1704.13 1324.32C1698.09 1333.94 1695.5 1346.35 1696.85 1359.28C1698.19 1372.21 1703.28 1383.83 1711.16 1391.99C1718.15 1399.23 1726.49 1402.76 1734.62 1401.89C1742.77 1401.05 1750.2 1395.89 1755.54 1387.38C1761.58 1377.77 1764.16 1365.35 1762.82 1352.42L1762.82 1352.42C1761.47 1339.49 1756.39 1327.87 1748.5 1319.71C1742.2 1313.18 1734.81 1309.68 1727.44 1309.68Z" />
				</g>
				<g id="&lt;Group&gt;">
					<path id="&lt;Path&gt;" class="shp144" d="M934.07 1296.8C1009.42 1330.9 1136.71 1344.88 1315.93 1338.72C1348.76 1370.18 1348.76 1398.91 1315.93 1424.91C1266.67 1463.9 989.49 1486.34 915.44 1406.44C884.19 1372.71 890.4 1336.17 934.07 1296.8Z" />
				</g>
				<g id="&lt;Group&gt;" style="opacity: 0.251">
					<path id="&lt;Path&gt;" class="shp145" d="M1315.92 1424.93C1266.69 1463.89 989.5 1486.32 915.42 1406.42C893.13 1382.38 896.25 1356.44 905.72 1335.8C908.18 1340.25 911.4 1344.65 915.42 1349.01C989.5 1428.91 1266.69 1406.47 1315.92 1367.51C1321.12 1363.35 1325.29 1359.14 1328.41 1354.88C1338.73 1372.06 1347.21 1400.13 1315.92 1424.93Z" />
				</g>
				<g id="&lt;Group&gt;">
					<path id="&lt;Compound Path&gt;" fill-rule="evenodd" class="shp145" d="M1120.77 1476.99C1057.99 1476.99 950.58 1468.94 903.18 1417.8C888.14 1401.57 880.98 1382.97 881.9 1362.52C883.81 1320.07 921.28 1285.82 922.88 1284.38L931 1277.06L940.93 1281.56C942.64 1282.31 1055.56 1330.95 1315.35 1322.01L1322.4 1321.77L1327.49 1326.65C1330.41 1329.46 1356.03 1355 1354.46 1388.11C1353.84 1401.19 1348.45 1420.47 1326.3 1438.01C1293.27 1464.16 1198.84 1476.54 1125.08 1476.97C1123.67 1476.98 1122.23 1476.99 1120.77 1476.99ZM938.36 1316.42C929.76 1326.2 916.12 1344.67 915.29 1364.13C914.81 1375.42 918.87 1385.55 927.7 1395.08C995.52 1468.27 1263.98 1444.71 1305.55 1411.8C1315.56 1403.87 1320.64 1395.61 1321.07 1386.53C1321.63 1374.77 1314.25 1362.68 1308.71 1355.67C1087.87 1362.41 972.86 1328.84 938.36 1316.42Z" />
				</g>
				<g id="&lt;Group&gt;" style="opacity: 0.251">
					<path id="&lt;Path&gt;" class="shp145" d="M1901.82 1693.74C1861.35 1742.64 1731.56 1789.83 1661.69 1746.04C1603.33 1709.5 1601.48 1657.15 1560.11 1627.05C1557.7 1625.3 1550.41 1622.12 1539.29 1617.25C1670.31 1575.93 1790.2 1555.19 1898.08 1548.28C1944.56 1605.51 1935.33 1653.22 1901.82 1693.74Z" />
				</g>
				<g id="&lt;Group&gt;">
					<path id="&lt;Path&gt;" class="shp144" d="M1337.81 1075.02C1484.2 1257.66 1725.72 1369.63 1870 1499.81C1949.08 1571.16 1936.63 1605.49 1897.19 1653.21C1856.75 1702.12 1761.75 1749.32 1691.89 1705.54C1633.53 1668.97 1629.9 1634.22 1588.54 1604.1C1572.22 1592.21 1309.77 1522.57 1164.07 1295.49" />
				</g>
				<g id="&lt;Group&gt;" style="opacity: 0.251">
					<path id="&lt;Path&gt;" class="shp145" d="M1897.18 1653.22C1856.76 1702.12 1761.76 1749.31 1691.89 1705.53C1633.53 1668.98 1629.88 1634.24 1588.51 1604.09C1572.23 1592.21 1309.76 1522.58 1164.07 1295.47L1167.05 1291.68C1329.55 1462.51 1498.93 1472.74 1611.43 1559.32C1651.97 1590.52 1655.49 1600.87 1713.85 1637.41C1783.72 1681.2 1878.72 1634 1919.14 1585.11C1921.75 1581.98 1924.21 1578.91 1926.53 1575.88C1933.2 1603.47 1919.52 1626.19 1897.18 1653.22Z" />
				</g>
				<g id="&lt;Group&gt;">
					<path id="&lt;Path&gt;" class="shp145" d="M1342.74 1071.07C1373.82 1093.01 1399.46 1117.94 1426.89 1141.83C1453.81 1166.02 1481.48 1189.61 1509.41 1213.08C1537.83 1236.03 1567.26 1257.8 1597.42 1278.82C1627.4 1300.03 1658 1320.65 1688.54 1341.44C1719.11 1362.32 1749.86 1382.99 1780.11 1404.86C1787.73 1410.2 1795.26 1415.73 1802.74 1421.37C1810.22 1426.99 1817.77 1432.49 1825.2 1438.21C1839.9 1449.93 1854.8 1461.34 1868.96 1473.94C1883.34 1486.01 1897.55 1499.17 1910.87 1513.8C1914.12 1517.63 1917.41 1521.36 1920.59 1525.29C1923.63 1529.49 1926.77 1533.51 1929.66 1537.9L1933.81 1544.79L1935.86 1548.25C1936.49 1549.46 1937.06 1550.77 1937.66 1552.03L1941.14 1559.67C1942.16 1562.34 1942.96 1565.22 1943.84 1568C1947.04 1579.21 1948.3 1592.2 1945.66 1604.12C1943.26 1615.99 1938.57 1626.71 1933.12 1635.79C1927.64 1644.84 1921.67 1653.08 1915.56 1660.57C1912.67 1664.33 1909.2 1668.21 1905.68 1672.08C1902.3 1676.07 1898.47 1679.38 1894.81 1682.96C1879.84 1696.76 1863.25 1708.17 1845.47 1717.51C1827.68 1726.81 1808.63 1734 1788.49 1738.11C1768.4 1742.19 1747.04 1743.08 1725.98 1738.88L1718.13 1737.06C1715.51 1736.49 1712.9 1735.84 1710.39 1734.8C1705.37 1732.83 1700.15 1731.29 1695.34 1728.84C1690.6 1726.31 1685.69 1723.78 1681.15 1721.13C1677.01 1718.34 1672.79 1715.74 1668.74 1712.76C1660.61 1706.9 1652.7 1700.54 1645.34 1693.55C1638.02 1686.56 1631.1 1679.1 1624.91 1671.5C1612.43 1656.27 1602.48 1641.69 1590.79 1630.69C1589.39 1629.21 1587.81 1627.97 1586.32 1626.62C1584.83 1625.27 1583.32 1623.95 1581.69 1622.75L1579.3 1620.9L1578.11 1619.97L1577.52 1619.5C1577.24 1619.28 1577.51 1619.55 1577.48 1619.54C1577.58 1619.64 1577.69 1619.72 1577.82 1619.75L1576.83 1619.31C1576.03 1618.96 1575.43 1618.64 1574.36 1618.22C1566.59 1615.02 1557.66 1611.7 1549.05 1608.36C1531.65 1601.63 1514.21 1594.56 1496.99 1587.01C1428.1 1556.84 1361.9 1519.28 1302.23 1472.5C1287.23 1460.93 1272.86 1448.53 1258.72 1435.87C1244.83 1422.94 1230.52 1410.38 1217.36 1396.59C1210.66 1389.8 1204.33 1382.66 1198.46 1375.14C1195.43 1371.46 1192.45 1367.74 1189.78 1363.77C1187.01 1359.88 1184.28 1355.97 1181.67 1351.97C1176.39 1344.03 1172.06 1335.38 1167.95 1326.71C1164.15 1317.82 1160.87 1308.64 1158.76 1298.9C1157.97 1295.26 1160.27 1291.68 1163.91 1290.89C1165.76 1290.49 1167.6 1290.89 1169.06 1291.87L1169.38 1292.08C1177.65 1297.63 1184.42 1303.97 1191.27 1310.18C1198.26 1316.28 1204.34 1322.94 1210.7 1329.36C1213.84 1332.59 1216.87 1335.9 1219.85 1339.24C1222.82 1342.6 1225.99 1345.78 1228.98 1349.12C1232.04 1352.39 1235.03 1355.71 1237.93 1359.12C1240.96 1362.41 1243.99 1365.71 1246.95 1369.07C1258.74 1382.55 1271.1 1395.63 1284.27 1407.87C1297.62 1419.92 1311.29 1431.65 1325.55 1442.67C1382.3 1487.17 1445.71 1523.22 1512.17 1552.32C1528.81 1559.61 1545.63 1566.43 1562.7 1573.04C1571.32 1576.39 1579.73 1579.49 1589.05 1583.32C1590.13 1583.74 1591.61 1584.43 1592.92 1585.02C1593.65 1585.37 1594.12 1585.55 1595.07 1586.04C1596.2 1586.65 1597.32 1587.3 1598.41 1587.98C1598.88 1588.28 1599.68 1588.77 1599.85 1588.92L1600.63 1589.52L1602.17 1590.72L1605.26 1593.12C1609.38 1596.28 1613.26 1599.84 1617.03 1603.39C1632.24 1617.91 1643.14 1634.18 1654.14 1647.44C1665.07 1660.84 1676.97 1672.11 1690.78 1681.97C1694.17 1684.48 1697.85 1686.71 1701.36 1689.1L1711.53 1694.61C1714.93 1696.4 1718.69 1697.35 1722.22 1698.83C1723.98 1699.62 1725.86 1700.06 1727.77 1700.44L1733.42 1701.75C1748.64 1704.79 1764.91 1704.27 1780.97 1701C1813.08 1694.35 1844.58 1677.59 1869.11 1655.15C1872.03 1652.25 1875.26 1649.54 1877.82 1646.44C1880.52 1643.46 1883.25 1640.49 1885.99 1636.91C1891.57 1630.09 1896.4 1623.28 1900.51 1616.54C1904.59 1609.8 1907.14 1603.24 1908.47 1597.02C1909.92 1590.82 1909.16 1584.83 1907.42 1578.37C1903.69 1565.46 1894.11 1551.65 1882.64 1539.03C1871.06 1526.34 1858.15 1514.27 1844.21 1502.6C1830.76 1490.6 1816.28 1479.53 1802.09 1468.21C1794.88 1462.65 1787.48 1457.27 1780.19 1451.79C1772.91 1446.29 1765.54 1440.89 1758.03 1435.62C1728.37 1414.17 1697.75 1393.59 1667.28 1372.77C1636.71 1351.96 1606 1331.27 1575.62 1309.78C1545.1 1288.56 1515.29 1266.08 1485.22 1243.83C1455.61 1220.92 1426.01 1197.6 1399.8 1170.35C1372.85 1144.09 1349.24 1113.7 1332.89 1078.97C1331.36 1075.73 1332.76 1071.86 1335.99 1070.34C1338.18 1069.31 1340.65 1069.6 1342.49 1070.9L1342.74 1071.07Z" />
				</g>
				<g id="&lt;Group&gt;">
					<path id="&lt;Path&gt;" class="shp145" d="M1349.19 1500.4C1347.88 1500.4 1346.54 1500.24 1345.21 1499.91C1336.24 1497.73 1330.75 1488.68 1332.94 1479.72C1335.21 1470.39 1390.14 1252.47 1541.92 1252.47C1542.75 1252.47 1543.56 1252.48 1544.39 1252.49C1553.62 1252.63 1560.99 1260.23 1560.84 1269.46C1560.7 1278.69 1553.09 1286.28 1543.87 1285.91C1543.26 1285.9 1542.63 1285.9 1542.02 1285.9C1416.07 1285.9 1365.91 1485.61 1365.41 1487.64C1363.55 1495.28 1356.71 1500.4 1349.19 1500.4Z" />
				</g>
				<g id="&lt;Group&gt;">
					<path id="&lt;Path&gt;" class="shp145" d="M1968.13 1154.96C1965.35 1154.96 1962.55 1154.27 1959.96 1152.82C1875.68 1105.48 1869.53 877.67 1869.1 851.85C1868.95 842.62 1876.31 835.01 1885.53 834.86C1885.63 834.86 1885.72 834.86 1885.82 834.86C1894.92 834.86 1902.37 842.16 1902.52 851.29C1903.61 916.13 1918.98 1091.47 1976.33 1123.67C1984.37 1128.19 1987.24 1138.38 1982.71 1146.43C1979.65 1151.89 1973.97 1154.96 1968.13 1154.96Z" />
				</g>
				<g id="&lt;Group&gt;">
					<path id="&lt;Path&gt;" class="shp145" d="M2106.5 727.45C2106.67 728.49 2106.75 730.43 2106.86 732.04L2107.18 737.16C2107.47 740.61 2107.59 744.1 2107.94 747.58C2108.4 754.59 2109.28 761.59 2110.28 768.64C2111.25 775.73 2112.73 782.75 2114.11 790.1C2115.21 797.65 2117.11 805.01 2118.03 814C2109.99 810.3 2103.27 804.65 2097.8 798.09C2094.95 794.84 2092.72 791.24 2090.45 787.59C2088.49 783.85 2086.39 780.08 2084.82 776.12C2081.41 768.28 2079 760.03 2077.47 751.62C2076.83 747.4 2076.19 743.15 2076.06 738.83C2075.97 736.67 2075.89 734.51 2076 732.31C2076.05 730.03 2076.21 728.08 2076.58 725.24C2077.66 717.08 2085.15 711.33 2093.31 712.41C2100 713.29 2105.06 718.47 2106.08 724.81L2106.5 727.45Z" />
				</g>
			</g>
		</g>
	</g>
</svg>