<svg width="92" height="30" viewBox="0 0 92 30" fill="none" xmlns="http://www.w3.org/2000/svg">
<path d="M10.38 7.96V10.7H4.66V13.66H8.94V16.32H4.66V22H1.24V7.96H10.38ZM15.5975 7.2V22H12.1775V7.2H15.5975ZM28.5959 16.24C28.5959 16.56 28.5759 16.8933 28.5359 17.24H20.7959C20.8493 17.9333 21.0693 18.4667 21.4559 18.84C21.8559 19.2 22.3426 19.38 22.9159 19.38C23.7693 19.38 24.3626 19.02 24.6959 18.3H28.3359C28.1493 19.0333 27.8093 19.6933 27.3159 20.28C26.8359 20.8667 26.2293 21.3267 25.4959 21.66C24.7626 21.9933 23.9426 22.16 23.0359 22.16C21.9426 22.16 20.9693 21.9267 20.1159 21.46C19.2626 20.9933 18.5959 20.3267 18.1159 19.46C17.6359 18.5933 17.3959 17.58 17.3959 16.42C17.3959 15.26 17.6293 14.2467 18.0959 13.38C18.5759 12.5133 19.2426 11.8467 20.0959 11.38C20.9493 10.9133 21.9293 10.68 23.0359 10.68C24.1159 10.68 25.0759 10.9067 25.9159 11.36C26.7559 11.8133 27.4093 12.46 27.8759 13.3C28.3559 14.14 28.5959 15.12 28.5959 16.24ZM25.0959 15.34C25.0959 14.7533 24.8959 14.2867 24.4959 13.94C24.0959 13.5933 23.5959 13.42 22.9959 13.42C22.4226 13.42 21.9359 13.5867 21.5359 13.92C21.1493 14.2533 20.9093 14.7267 20.8159 15.34H25.0959ZM37.0002 22L34.8602 18.9L33.0602 22H29.3602L33.0402 16.3L29.2602 10.84H33.1002L35.2402 13.92L37.0402 10.84H40.7402L37.0002 16.46L40.8402 22H37.0002ZM56.398 10.72C57.7846 10.72 58.8846 11.14 59.698 11.98C60.5246 12.82 60.938 13.9867 60.938 15.48V22H57.538V15.94C57.538 15.22 57.3446 14.6667 56.958 14.28C56.5846 13.88 56.0646 13.68 55.398 13.68C54.7313 13.68 54.2046 13.88 53.818 14.28C53.4446 14.6667 53.258 15.22 53.258 15.94V22H49.858V15.94C49.858 15.22 49.6646 14.6667 49.278 14.28C48.9046 13.88 48.3846 13.68 47.718 13.68C47.0513 13.68 46.5246 13.88 46.138 14.28C45.7646 14.6667 45.578 15.22 45.578 15.94V22H42.158V10.84H45.578V12.24C45.9246 11.7733 46.378 11.4067 46.938 11.14C47.498 10.86 48.1313 10.72 48.838 10.72C49.678 10.72 50.4246 10.9 51.078 11.26C51.7446 11.62 52.2646 12.1333 52.638 12.8C53.0246 12.1867 53.5513 11.6867 54.218 11.3C54.8846 10.9133 55.6113 10.72 56.398 10.72ZM62.6498 16.4C62.6498 15.2533 62.8632 14.2467 63.2898 13.38C63.7298 12.5133 64.3232 11.8467 65.0698 11.38C65.8165 10.9133 66.6498 10.68 67.5698 10.68C68.3565 10.68 69.0432 10.84 69.6298 11.16C70.2298 11.48 70.6898 11.9 71.0098 12.42V10.84H74.4298V22H71.0098V20.42C70.6765 20.94 70.2098 21.36 69.6098 21.68C69.0232 22 68.3365 22.16 67.5498 22.16C66.6432 22.16 65.8165 21.9267 65.0698 21.46C64.3232 20.98 63.7298 20.3067 63.2898 19.44C62.8632 18.56 62.6498 17.5467 62.6498 16.4ZM71.0098 16.42C71.0098 15.5667 70.7698 14.8933 70.2898 14.4C69.8232 13.9067 69.2498 13.66 68.5698 13.66C67.8898 13.66 67.3098 13.9067 66.8298 14.4C66.3632 14.88 66.1298 15.5467 66.1298 16.4C66.1298 17.2533 66.3632 17.9333 66.8298 18.44C67.3098 18.9333 67.8898 19.18 68.5698 19.18C69.2498 19.18 69.8232 18.9333 70.2898 18.44C70.7698 17.9467 71.0098 17.2733 71.0098 16.42ZM83.7041 10.72C85.0107 10.72 86.0507 11.1467 86.8241 12C87.6107 12.84 88.0041 14 88.0041 15.48V22H84.6041V15.94C84.6041 15.1933 84.4107 14.6133 84.0241 14.2C83.6374 13.7867 83.1174 13.58 82.4641 13.58C81.8107 13.58 81.2907 13.7867 80.9041 14.2C80.5174 14.6133 80.3241 15.1933 80.3241 15.94V22H76.9041V10.84H80.3241V12.32C80.6707 11.8267 81.1374 11.44 81.7241 11.16C82.3107 10.8667 82.9707 10.72 83.7041 10.72Z" fill="black"/>
<circle cx="89" cy="7" r="3" fill="#F91414"/>
</svg>
